SplineFontDB: 3.0
FontName: Oxanium-Bold
FullName: Oxanium Bold
FamilyName: Oxanium
Weight: Bold
Copyright: Copyright 2019 The Oxanium Project Authors (https://github.com/sevmeyer/oxanium)
Version: 0.000
ItalicAngle: 0
UnderlinePosition: -75
UnderlineWidth: 50
Ascent: 800
Descent: 200
InvalidEm: 0
LayerCount: 2
Layer: 0 1 "Back" 1
Layer: 1 1 "Fore" 0
StyleMap: 0x0020
FSType: 0
OS2Version: 4
OS2_WeightWidthSlopeOnly: 0
OS2_UseTypoMetrics: 1
CreationTime: 1546300800
ModificationTime: 1551956175
PfmFamily: 33
TTFWeight: 700
TTFWidth: 5
LineGap: 250
VLineGap: 0
OS2TypoAscent: 790
OS2TypoAOffset: 0
OS2TypoDescent: -210
OS2TypoDOffset: 0
OS2TypoLinegap: 250
OS2WinAscent: 1000
OS2WinAOffset: 0
OS2WinDescent: 250
OS2WinDOffset: 0
HheadAscent: 790
HheadAOffset: 0
HheadDescent: -210
HheadDOffset: 0
OS2SubXSize: 620
OS2SubYSize: 600
OS2SubXOff: 0
OS2SubYOff: 124
OS2SupXSize: 620
OS2SupYSize: 600
OS2SupXOff: 0
OS2SupYOff: 400
OS2StrikeYSize: 50
OS2StrikeYPos: 250
OS2CapHeight: 690
OS2XHeight: 528
OS2Vendor: '    '
DEI: 91125
LangName: 1033 "" "" "" "" "" "" "" "" "" "Severin Meyer" "" "" "https://sev.dev/fonts/oxanium" "SIL Open Font License 1.1" "http://scripts.sil.org/OFL"
Encoding: Custom
UnicodeInterp: none
NameList: AGL For New Fonts
DisplaySize: -48
AntiAlias: 1
FitToEm: 0
WinInfo: 0 32 12
BeginPrivate: 2
BlueValues 41 [-10 0 528 538 690 700 740 750 1000 1010]
OtherBlues 11 [-210 -200]
EndPrivate
BeginChars: 375 375

StartChar: exclam
Encoding: 3 33 3
Width: 278
Flags: W
LayerCount: 2
Fore
SplineSet
64 0 m 1,0,-1
 64 144 l 1,1,-1
 214 144 l 1,2,-1
 214 0 l 1,3,-1
 64 0 l 1,0,-1
67 222 m 1,4,-1
 67 690 l 1,5,-1
 211 690 l 1,6,-1
 211 222 l 1,7,-1
 67 222 l 1,4,-1
EndSplineSet
EndChar

StartChar: numbersign
Encoding: 5 35 5
Width: 678
Flags: W
LayerCount: 2
Fore
SplineSet
50 166 m 1,0,-1
 50 284 l 1,1,-1
 163 284 l 1,2,-1
 163 406 l 1,3,-1
 50 406 l 1,4,-1
 50 524 l 1,5,-1
 163 524 l 1,6,-1
 163 690 l 1,7,-1
 287 690 l 1,8,-1
 287 524 l 1,9,-1
 391 524 l 1,10,-1
 391 690 l 1,11,-1
 515 690 l 1,12,-1
 515 524 l 1,13,-1
 628 524 l 1,14,-1
 628 406 l 1,15,-1
 515 406 l 1,16,-1
 515 284 l 1,17,-1
 628 284 l 1,18,-1
 628 166 l 1,19,-1
 515 166 l 1,20,-1
 515 0 l 1,21,-1
 391 0 l 1,22,-1
 391 166 l 1,23,-1
 287 166 l 1,24,-1
 287 0 l 1,25,-1
 163 0 l 1,26,-1
 163 166 l 1,27,-1
 50 166 l 1,0,-1
287 284 m 1,28,-1
 391 284 l 1,29,-1
 391 406 l 1,30,-1
 287 406 l 1,31,-1
 287 284 l 1,28,-1
EndSplineSet
EndChar

StartChar: dollar
Encoding: 6 36 6
Width: 578
Flags: W
LayerCount: 2
Fore
SplineSet
57 52 m 1,0,-1
 57 130 l 1,1,-1
 347 130 l 2,2,3
 377 130 377 130 377 160 c 2,4,-1
 377 218 l 2,5,6
 377 246 377 246 352 251 c 2,7,-1
 177 286 l 2,8,9
 57 310 57 310 57 447 c 2,10,-1
 57 492 l 2,11,12
 57 660 57 660 225 660 c 2,13,-1
 229 660 l 1,14,-1
 229 780 l 1,15,-1
 349 780 l 1,16,-1
 349 660 l 1,17,-1
 434 660 l 1,18,-1
 501 608 l 1,19,-1
 501 530 l 1,20,-1
 231 530 l 2,21,22
 201 530 201 530 201 500 c 2,23,-1
 201 446 l 2,24,25
 201 418 201 418 226 413 c 2,26,-1
 401 378 l 2,27,28
 521 354 521 354 521 217 c 2,29,-1
 521 168 l 2,30,31
 521 0 521 0 353 0 c 2,32,-1
 349 0 l 1,33,-1
 349 -120 l 1,34,-1
 229 -120 l 1,35,-1
 229 0 l 1,36,-1
 124 0 l 1,37,-1
 57 52 l 1,0,-1
EndSplineSet
EndChar

StartChar: ampersand
Encoding: 8 38 8
Width: 676
Flags: W
LayerCount: 2
Fore
SplineSet
62 162 m 2,0,-1
 62 248 l 2,1,2
 62 300 62 300 95 328 c 2,3,-1
 137 363 l 1,4,-1
 102 405 l 2,5,6
 82 429 82 429 82 463 c 2,7,-1
 82 528 l 2,8,9
 82 690 82 690 244 690 c 2,10,-1
 426 690 l 1,11,-1
 486 645 l 1,12,-1
 486 570 l 1,13,-1
 252 570 l 2,14,15
 220 570 220 570 220 538 c 2,16,-1
 220 452 l 2,17,18
 220 420 220 420 252 420 c 2,19,-1
 636 420 l 1,20,-1
 636 300 l 1,21,-1
 536 300 l 1,22,-1
 536 0 l 1,23,-1
 224 0 l 2,24,25
 62 0 62 0 62 162 c 2,0,-1
200 152 m 2,26,27
 200 120 200 120 232 120 c 2,28,-1
 398 120 l 1,29,-1
 398 300 l 1,30,-1
 232 300 l 2,31,32
 200 300 200 300 200 268 c 2,33,-1
 200 152 l 2,26,27
EndSplineSet
EndChar

StartChar: quotesingle
Encoding: 9 39 9
Width: 248
Flags: W
LayerCount: 2
Fore
SplineSet
62 470 m 1,0,-1
 62 740 l 1,1,-1
 186 740 l 1,2,-1
 186 470 l 1,3,-1
 62 470 l 1,0,-1
EndSplineSet
EndChar

StartChar: parenleft
Encoding: 10 40 10
Width: 348
Flags: W
LayerCount: 2
Fore
SplineSet
64 290 m 128,-1,1
 64 562 64 562 225 780 c 1,2,-1
 330 701 l 1,3,4
 203 520 203 520 203 290 c 128,-1,5
 203 60 203 60 330 -121 c 1,6,-1
 225 -200 l 1,7,0
 64 18 64 18 64 290 c 128,-1,1
EndSplineSet
EndChar

StartChar: parenright
Encoding: 11 41 11
Width: 348
Flags: W
LayerCount: 2
Fore
SplineSet
18 -121 m 1,0,1
 145 60 145 60 145 290 c 128,-1,2
 145 520 145 520 18 701 c 1,3,-1
 123 780 l 1,4,5
 284 562 284 562 284 290 c 128,-1,6
 284 18 284 18 123 -200 c 1,7,-1
 18 -121 l 1,0,1
EndSplineSet
EndChar

StartChar: asterisk
Encoding: 12 42 12
Width: 514
Flags: W
LayerCount: 2
Fore
SplineSet
41 495 m 1,0,-1
 73 594 l 1,1,-1
 203 555 l 1,2,-1
 203 690 l 1,3,-1
 311 690 l 1,4,-1
 311 555 l 1,5,-1
 441 594 l 1,6,-1
 473 495 l 1,7,-1
 345 451 l 1,8,-1
 423 340 l 1,9,-1
 339 279 l 1,10,-1
 257 387 l 1,11,-1
 175 279 l 1,12,-1
 91 340 l 1,13,-1
 169 451 l 1,14,-1
 41 495 l 1,0,-1
EndSplineSet
EndChar

StartChar: plus
Encoding: 13 43 13
Width: 578
Flags: W
LayerCount: 2
Fore
SplineSet
60 276 m 1,0,-1
 60 394 l 1,1,-1
 227 394 l 1,2,-1
 227 570 l 1,3,-1
 351 570 l 1,4,-1
 351 394 l 1,5,-1
 518 394 l 1,6,-1
 518 276 l 1,7,-1
 351 276 l 1,8,-1
 351 100 l 1,9,-1
 227 100 l 1,10,-1
 227 276 l 1,11,-1
 60 276 l 1,0,-1
EndSplineSet
EndChar

StartChar: comma
Encoding: 14 44 14
Width: 278
Flags: W
LayerCount: 2
Fore
SplineSet
22 -124 m 1,0,-1
 80 144 l 1,1,-1
 214 144 l 1,2,-1
 228 123 l 1,3,-1
 124 -150 l 1,4,-1
 22 -124 l 1,0,-1
EndSplineSet
EndChar

StartChar: hyphen
Encoding: 15 45 15
Width: 380
Flags: W
LayerCount: 2
Fore
SplineSet
40 246 m 1,0,-1
 40 364 l 1,1,-1
 340 364 l 1,2,-1
 340 246 l 1,3,-1
 40 246 l 1,0,-1
EndSplineSet
EndChar

StartChar: period
Encoding: 16 46 16
Width: 278
Flags: W
LayerCount: 2
Fore
SplineSet
64 0 m 1,0,-1
 64 144 l 1,1,-1
 214 144 l 1,2,-1
 214 0 l 1,3,-1
 64 0 l 1,0,-1
EndSplineSet
EndChar

StartChar: slash
Encoding: 17 47 17
Width: 436
Flags: W
LayerCount: 2
Fore
SplineSet
20 -16 m 1,0,-1
 300 748 l 1,1,-1
 416 706 l 1,2,-1
 136 -58 l 1,3,-1
 20 -16 l 1,0,-1
EndSplineSet
EndChar

StartChar: zero
Encoding: 18 48 18
Width: 578
Flags: W
LayerCount: 2
Fore
SplineSet
52 168 m 2,0,-1
 52 522 l 2,1,2
 52 690 52 690 220 690 c 2,3,-1
 358 690 l 2,4,5
 526 690 526 690 526 522 c 2,6,-1
 526 168 l 2,7,8
 526 0 526 0 358 0 c 2,9,-1
 220 0 l 2,10,11
 52 0 52 0 52 168 c 2,0,-1
196 160 m 2,12,13
 196 130 196 130 226 130 c 2,14,-1
 352 130 l 2,15,16
 382 130 382 130 382 160 c 2,17,-1
 382 530 l 2,18,19
 382 560 382 560 352 560 c 2,20,-1
 226 560 l 2,21,22
 196 560 196 560 196 530 c 2,23,-1
 196 160 l 2,12,13
EndSplineSet
EndChar

StartChar: one
Encoding: 19 49 19
Width: 578
Flags: W
LayerCount: 2
Fore
SplineSet
80 0 m 1,0,-1
 80 130 l 1,1,-1
 233 130 l 1,2,-1
 233 560 l 1,3,-1
 105 560 l 1,4,-1
 105 638 l 1,5,-1
 172 690 l 1,6,-1
 377 690 l 1,7,-1
 377 130 l 1,8,-1
 514 130 l 1,9,-1
 514 0 l 1,10,-1
 80 0 l 1,0,-1
EndSplineSet
EndChar

StartChar: two
Encoding: 20 50 20
Width: 578
Flags: W
LayerCount: 2
Fore
SplineSet
52 0 m 1,0,-1
 52 225 l 2,1,2
 52 362 52 362 172 386 c 2,3,-1
 357 423 l 2,4,5
 382 428 382 428 382 456 c 2,6,-1
 382 530 l 2,7,8
 382 560 382 560 352 560 c 2,9,-1
 72 560 l 1,10,-1
 72 638 l 1,11,-1
 139 690 l 1,12,-1
 358 690 l 2,13,14
 526 690 526 690 526 522 c 2,15,-1
 526 457 l 2,16,17
 526 320 526 320 406 296 c 2,18,-1
 221 259 l 2,19,20
 196 254 196 254 196 226 c 2,21,-1
 196 130 l 1,22,-1
 526 130 l 1,23,-1
 526 0 l 1,24,-1
 52 0 l 1,0,-1
EndSplineSet
EndChar

StartChar: three
Encoding: 21 51 21
Width: 578
Flags: W
LayerCount: 2
Fore
SplineSet
62 52 m 1,0,-1
 62 130 l 1,1,-1
 352 130 l 2,2,3
 382 130 382 130 382 160 c 2,4,-1
 382 260 l 2,5,6
 382 290 382 290 352 290 c 2,7,-1
 136 290 l 1,8,-1
 136 420 l 1,9,-1
 352 420 l 2,10,11
 382 420 382 420 382 450 c 2,12,-1
 382 530 l 2,13,14
 382 560 382 560 352 560 c 2,15,-1
 72 560 l 1,16,-1
 72 638 l 1,17,-1
 139 690 l 1,18,-1
 358 690 l 2,19,20
 526 690 526 690 526 522 c 2,21,-1
 526 458 l 2,22,23
 526 418 526 418 501 393 c 2,24,-1
 466 358 l 1,25,-1
 501 323 l 2,26,27
 526 298 526 298 526 258 c 2,28,-1
 526 168 l 2,29,30
 526 0 526 0 358 0 c 2,31,-1
 129 0 l 1,32,-1
 62 52 l 1,0,-1
EndSplineSet
EndChar

StartChar: four
Encoding: 22 52 22
Width: 578
Flags: W
LayerCount: 2
Fore
SplineSet
52 102 m 1,0,-1
 52 220 l 1,1,-1
 263 690 l 1,2,-1
 385 690 l 1,3,-1
 402 660 l 1,4,-1
 210 232 l 1,5,-1
 382 232 l 1,6,-1
 382 430 l 1,7,-1
 526 430 l 1,8,-1
 526 0 l 1,9,-1
 382 0 l 1,10,-1
 382 102 l 1,11,-1
 52 102 l 1,0,-1
EndSplineSet
EndChar

StartChar: five
Encoding: 23 53 23
Width: 578
Flags: W
LayerCount: 2
Fore
SplineSet
42 52 m 1,0,-1
 42 130 l 1,1,-1
 352 130 l 2,2,3
 382 130 382 130 382 160 c 2,4,-1
 382 270 l 2,5,6
 382 300 382 300 352 300 c 2,7,-1
 52 300 l 1,8,-1
 52 690 l 1,9,-1
 496 690 l 1,10,-1
 496 560 l 1,11,-1
 196 560 l 1,12,-1
 196 430 l 1,13,-1
 358 430 l 2,14,15
 526 430 526 430 526 262 c 2,16,-1
 526 168 l 2,17,18
 526 0 526 0 358 0 c 2,19,-1
 109 0 l 1,20,-1
 42 52 l 1,0,-1
EndSplineSet
EndChar

StartChar: six
Encoding: 24 54 24
Width: 578
Flags: W
LayerCount: 2
Fore
SplineSet
52 168 m 2,0,-1
 52 488 l 2,1,2
 52 690 52 690 254 690 c 2,3,-1
 419 690 l 1,4,-1
 486 638 l 1,5,-1
 486 560 l 1,6,-1
 250 560 l 2,7,8
 196 560 196 560 196 506 c 2,9,-1
 196 430 l 1,10,-1
 358 430 l 2,11,12
 526 430 526 430 526 262 c 2,13,-1
 526 168 l 2,14,15
 526 0 526 0 358 0 c 2,16,-1
 220 0 l 2,17,18
 52 0 52 0 52 168 c 2,0,-1
196 160 m 2,19,20
 196 130 196 130 226 130 c 2,21,-1
 352 130 l 2,22,23
 382 130 382 130 382 160 c 2,24,-1
 382 270 l 2,25,26
 382 300 382 300 352 300 c 2,27,-1
 196 300 l 1,28,-1
 196 160 l 2,19,20
EndSplineSet
EndChar

StartChar: seven
Encoding: 25 55 25
Width: 578
Flags: W
LayerCount: 2
Fore
SplineSet
52 560 m 1,0,-1
 52 690 l 1,1,-1
 526 690 l 1,2,-1
 526 475 l 1,3,-1
 277 0 l 1,4,-1
 148 0 l 1,5,-1
 131 30 l 1,6,-1
 382 505 l 1,7,-1
 382 560 l 1,8,-1
 52 560 l 1,0,-1
EndSplineSet
EndChar

StartChar: eight
Encoding: 26 56 26
Width: 578
Flags: W
LayerCount: 2
Fore
SplineSet
52 168 m 2,0,-1
 52 257 l 2,1,2
 52 297 52 297 77 322 c 2,3,-1
 112 357 l 1,4,-1
 77 392 l 2,5,6
 52 417 52 417 52 457 c 2,7,-1
 52 522 l 2,8,9
 52 690 52 690 220 690 c 2,10,-1
 358 690 l 2,11,12
 526 690 526 690 526 522 c 2,13,-1
 526 457 l 2,14,15
 526 417 526 417 501 392 c 2,16,-1
 466 357 l 1,17,-1
 501 322 l 2,18,19
 526 297 526 297 526 257 c 2,20,-1
 526 168 l 2,21,22
 526 0 526 0 358 0 c 2,23,-1
 220 0 l 2,24,25
 52 0 52 0 52 168 c 2,0,-1
196 160 m 2,26,27
 196 130 196 130 226 130 c 2,28,-1
 352 130 l 2,29,30
 382 130 382 130 382 160 c 2,31,-1
 382 260 l 2,32,33
 382 290 382 290 352 290 c 2,34,-1
 226 290 l 2,35,36
 196 290 196 290 196 260 c 2,37,-1
 196 160 l 2,26,27
196 450 m 2,38,39
 196 420 196 420 226 420 c 2,40,-1
 352 420 l 2,41,42
 382 420 382 420 382 450 c 2,43,-1
 382 530 l 2,44,45
 382 560 382 560 352 560 c 2,46,-1
 226 560 l 2,47,48
 196 560 196 560 196 530 c 2,49,-1
 196 450 l 2,38,39
EndSplineSet
EndChar

StartChar: nine
Encoding: 27 57 27
Width: 578
Flags: W
LayerCount: 2
Fore
SplineSet
52 428 m 2,0,-1
 52 522 l 2,1,2
 52 690 52 690 220 690 c 2,3,-1
 358 690 l 2,4,5
 526 690 526 690 526 522 c 2,6,-1
 526 202 l 2,7,8
 526 0 526 0 324 0 c 2,9,-1
 149 0 l 1,10,-1
 82 52 l 1,11,-1
 82 130 l 1,12,-1
 328 130 l 2,13,14
 382 130 382 130 382 184 c 2,15,-1
 382 260 l 1,16,-1
 220 260 l 2,17,18
 52 260 52 260 52 428 c 2,0,-1
196 420 m 2,19,20
 196 390 196 390 226 390 c 2,21,-1
 382 390 l 1,22,-1
 382 530 l 2,23,24
 382 560 382 560 352 560 c 2,25,-1
 226 560 l 2,26,27
 196 560 196 560 196 530 c 2,28,-1
 196 420 l 2,19,20
EndSplineSet
EndChar

StartChar: less
Encoding: 30 60 30
Width: 578
Flags: W
LayerCount: 2
Fore
SplineSet
64 270 m 1,0,-1
 64 400 l 1,1,-1
 474 596 l 1,2,-1
 524 491 l 1,3,-1
 191 335 l 1,4,-1
 524 179 l 1,5,-1
 474 74 l 1,6,-1
 64 270 l 1,0,-1
EndSplineSet
EndChar

StartChar: equal
Encoding: 31 61 31
Width: 578
Flags: W
LayerCount: 2
Fore
SplineSet
60 166 m 1,0,-1
 60 284 l 1,1,-1
 518 284 l 1,2,-1
 518 166 l 1,3,-1
 60 166 l 1,0,-1
60 386 m 1,4,-1
 60 504 l 1,5,-1
 518 504 l 1,6,-1
 518 386 l 1,7,-1
 60 386 l 1,4,-1
EndSplineSet
EndChar

StartChar: greater
Encoding: 32 62 32
Width: 578
Flags: W
LayerCount: 2
Fore
SplineSet
54 179 m 1,0,-1
 387 335 l 1,1,-1
 54 491 l 1,2,-1
 104 596 l 1,3,-1
 514 400 l 1,4,-1
 514 270 l 1,5,-1
 104 74 l 1,6,-1
 54 179 l 1,0,-1
EndSplineSet
EndChar

StartChar: question
Encoding: 33 63 33
Width: 524
Flags: W
LayerCount: 2
Fore
SplineSet
40 560 m 1,0,-1
 40 638 l 1,1,-1
 107 690 l 1,2,-1
 306 690 l 2,3,4
 474 690 474 690 474 522 c 2,5,-1
 474 438 l 2,6,7
 474 270 474 270 306 270 c 2,8,-1
 296 270 l 1,9,-1
 296 222 l 1,10,-1
 152 222 l 1,11,-1
 152 400 l 1,12,-1
 300 400 l 2,13,14
 330 400 330 400 330 430 c 2,15,-1
 330 530 l 2,16,17
 330 560 330 560 300 560 c 2,18,-1
 40 560 l 1,0,-1
149 0 m 1,19,-1
 149 144 l 1,20,-1
 299 144 l 1,21,-1
 299 0 l 1,22,-1
 149 0 l 1,19,-1
EndSplineSet
EndChar

StartChar: at
Encoding: 34 64 34
Width: 808
Flags: W
LayerCount: 2
Fore
SplineSet
82 16 m 2,0,-1
 82 534 l 2,1,2
 82 690 82 690 238 690 c 2,3,-1
 726 690 l 1,4,-1
 726 60 l 1,5,-1
 464 60 l 2,6,7
 302 60 302 60 302 222 c 2,8,-1
 302 328 l 2,9,10
 302 490 302 490 464 490 c 2,11,-1
 602 490 l 1,12,-1
 602 582 l 1,13,-1
 242 582 l 2,14,15
 206 582 206 582 206 546 c 2,16,-1
 206 4 l 2,17,18
 206 -32 206 -32 242 -32 c 2,19,-1
 706 -32 l 1,20,-1
 706 -95 l 1,21,-1
 646 -140 l 1,22,-1
 238 -140 l 2,23,24
 82 -140 82 -140 82 16 c 2,0,-1
440 212 m 2,25,26
 440 180 440 180 472 180 c 2,27,-1
 588 180 l 1,28,-1
 588 370 l 1,29,-1
 472 370 l 2,30,31
 440 370 440 370 440 338 c 2,32,-1
 440 212 l 2,25,26
EndSplineSet
EndChar

StartChar: A
Encoding: 35 65 35
Width: 666
Flags: W
LayerCount: 2
Fore
SplineSet
18 27 m 1,0,-1
 223 690 l 1,1,-1
 443 690 l 1,2,-1
 648 27 l 1,3,-1
 630 0 l 1,4,-1
 510 0 l 1,5,-1
 468 140 l 1,6,-1
 198 140 l 1,7,-1
 156 0 l 1,8,-1
 36 0 l 1,9,-1
 18 27 l 1,0,-1
237 270 m 1,10,-1
 429 270 l 1,11,-1
 341 560 l 1,12,-1
 325 560 l 1,13,-1
 237 270 l 1,10,-1
EndSplineSet
EndChar

StartChar: B
Encoding: 36 66 36
Width: 652
Flags: W
LayerCount: 2
Fore
SplineSet
82 0 m 1,0,-1
 82 690 l 1,1,-1
 408 690 l 2,2,3
 576 690 576 690 576 522 c 2,4,-1
 576 462 l 2,5,6
 576 428 576 428 556 404 c 2,7,-1
 521 362 l 1,8,-1
 563 327 l 2,9,10
 596 300 596 300 596 247 c 2,11,-1
 596 168 l 2,12,13
 596 0 596 0 428 0 c 2,14,-1
 82 0 l 1,0,-1
226 130 m 1,15,-1
 422 130 l 2,16,17
 452 130 452 130 452 160 c 2,18,-1
 452 260 l 2,19,20
 452 290 452 290 422 290 c 2,21,-1
 226 290 l 1,22,-1
 226 130 l 1,15,-1
226 420 m 1,23,-1
 402 420 l 2,24,25
 432 420 432 420 432 450 c 2,26,-1
 432 530 l 2,27,28
 432 560 432 560 402 560 c 2,29,-1
 226 560 l 1,30,-1
 226 420 l 1,23,-1
EndSplineSet
EndChar

StartChar: C
Encoding: 37 67 37
Width: 624
Flags: W
LayerCount: 2
Fore
SplineSet
72 168 m 2,0,-1
 72 522 l 2,1,2
 72 690 72 690 240 690 c 2,3,-1
 507 690 l 1,4,-1
 574 638 l 1,5,-1
 574 560 l 1,6,-1
 246 560 l 2,7,8
 216 560 216 560 216 530 c 2,9,-1
 216 160 l 2,10,11
 216 130 216 130 246 130 c 2,12,-1
 574 130 l 1,13,-1
 574 52 l 1,14,-1
 507 0 l 1,15,-1
 240 0 l 2,16,17
 72 0 72 0 72 168 c 2,0,-1
EndSplineSet
EndChar

StartChar: D
Encoding: 38 68 38
Width: 688
Flags: W
LayerCount: 2
Fore
SplineSet
82 0 m 1,0,-1
 82 690 l 1,1,-1
 344 690 l 2,2,3
 626 690 626 690 626 408 c 2,4,-1
 626 282 l 2,5,6
 626 0 626 0 344 0 c 2,7,-1
 82 0 l 1,0,-1
226 130 m 1,8,-1
 352 130 l 2,9,10
 482 130 482 130 482 260 c 2,11,-1
 482 430 l 2,12,13
 482 560 482 560 352 560 c 2,14,-1
 226 560 l 1,15,-1
 226 130 l 1,8,-1
EndSplineSet
EndChar

StartChar: E
Encoding: 39 69 39
Width: 604
Flags: W
LayerCount: 2
Fore
SplineSet
82 0 m 1,0,-1
 82 690 l 1,1,-1
 554 690 l 1,2,-1
 554 560 l 1,3,-1
 226 560 l 1,4,-1
 226 420 l 1,5,-1
 524 420 l 1,6,-1
 524 290 l 1,7,-1
 226 290 l 1,8,-1
 226 130 l 1,9,-1
 554 130 l 1,10,-1
 554 0 l 1,11,-1
 82 0 l 1,0,-1
EndSplineSet
EndChar

StartChar: F
Encoding: 40 70 40
Width: 584
Flags: W
LayerCount: 2
Fore
SplineSet
82 0 m 1,0,-1
 82 690 l 1,1,-1
 554 690 l 1,2,-1
 554 560 l 1,3,-1
 226 560 l 1,4,-1
 226 390 l 1,5,-1
 524 390 l 1,6,-1
 524 260 l 1,7,-1
 226 260 l 1,8,-1
 226 0 l 1,9,-1
 82 0 l 1,0,-1
EndSplineSet
EndChar

StartChar: G
Encoding: 41 71 41
Width: 678
Flags: W
LayerCount: 2
Fore
SplineSet
72 168 m 2,0,-1
 72 522 l 2,1,2
 72 690 72 690 240 690 c 2,3,-1
 529 690 l 1,4,-1
 596 638 l 1,5,-1
 596 560 l 1,6,-1
 246 560 l 2,7,8
 216 560 216 560 216 530 c 2,9,-1
 216 160 l 2,10,11
 216 130 216 130 246 130 c 2,12,-1
 472 130 l 1,13,-1
 472 290 l 1,14,-1
 340 290 l 1,15,-1
 340 420 l 1,16,-1
 616 420 l 1,17,-1
 616 0 l 1,18,-1
 240 0 l 2,19,20
 72 0 72 0 72 168 c 2,0,-1
EndSplineSet
EndChar

StartChar: H
Encoding: 42 72 42
Width: 708
Flags: W
LayerCount: 2
Fore
SplineSet
82 0 m 1,0,-1
 82 690 l 1,1,-1
 226 690 l 1,2,-1
 226 420 l 1,3,-1
 482 420 l 1,4,-1
 482 690 l 1,5,-1
 626 690 l 1,6,-1
 626 0 l 1,7,-1
 482 0 l 1,8,-1
 482 290 l 1,9,-1
 226 290 l 1,10,-1
 226 0 l 1,11,-1
 82 0 l 1,0,-1
EndSplineSet
EndChar

StartChar: I
Encoding: 43 73 43
Width: 308
Flags: W
LayerCount: 2
Fore
SplineSet
82 0 m 1,0,-1
 82 690 l 1,1,-1
 226 690 l 1,2,-1
 226 0 l 1,3,-1
 82 0 l 1,0,-1
EndSplineSet
EndChar

StartChar: J
Encoding: 44 74 44
Width: 612
Flags: W
LayerCount: 2
Fore
SplineSet
52 168 m 2,0,-1
 52 300 l 1,1,-1
 196 300 l 1,2,-1
 196 160 l 2,3,4
 196 130 196 130 226 130 c 2,5,-1
 362 130 l 2,6,7
 392 130 392 130 392 160 c 2,8,-1
 392 560 l 1,9,-1
 204 560 l 1,10,-1
 204 690 l 1,11,-1
 536 690 l 1,12,-1
 536 168 l 2,13,14
 536 0 536 0 368 0 c 2,15,-1
 220 0 l 2,16,17
 52 0 52 0 52 168 c 2,0,-1
EndSplineSet
EndChar

StartChar: K
Encoding: 45 75 45
Width: 672
Flags: W
LayerCount: 2
Fore
SplineSet
82 0 m 1,0,-1
 82 690 l 1,1,-1
 226 690 l 1,2,-1
 226 417 l 1,3,-1
 470 690 l 1,4,-1
 605 690 l 1,5,-1
 619 661 l 1,6,-1
 390 406 l 1,7,-1
 644 29 l 1,8,-1
 630 0 l 1,9,-1
 498 0 l 1,10,-1
 297 302 l 1,11,-1
 226 225 l 1,12,-1
 226 0 l 1,13,-1
 82 0 l 1,0,-1
EndSplineSet
EndChar

StartChar: L
Encoding: 46 76 46
Width: 548
Flags: W
LayerCount: 2
Fore
SplineSet
82 0 m 1,0,-1
 82 690 l 1,1,-1
 226 690 l 1,2,-1
 226 130 l 1,3,-1
 524 130 l 1,4,-1
 524 0 l 1,5,-1
 82 0 l 1,0,-1
EndSplineSet
EndChar

StartChar: M
Encoding: 47 77 47
Width: 898
Flags: W
LayerCount: 2
Fore
SplineSet
82 0 m 1,0,-1
 82 690 l 1,1,-1
 254 690 l 1,2,-1
 449 273 l 1,3,-1
 644 690 l 1,4,-1
 816 690 l 1,5,-1
 816 0 l 1,6,-1
 672 0 l 1,7,-1
 672 436 l 1,8,-1
 510 90 l 1,9,-1
 388 90 l 1,10,-1
 226 436 l 1,11,-1
 226 0 l 1,12,-1
 82 0 l 1,0,-1
EndSplineSet
EndChar

StartChar: N
Encoding: 48 78 48
Width: 738
Flags: W
LayerCount: 2
Fore
SplineSet
82 0 m 1,0,-1
 82 690 l 1,1,-1
 238 690 l 1,2,-1
 512 237 l 1,3,-1
 512 690 l 1,4,-1
 656 690 l 1,5,-1
 656 0 l 1,6,-1
 500 0 l 1,7,-1
 226 453 l 1,8,-1
 226 0 l 1,9,-1
 82 0 l 1,0,-1
EndSplineSet
EndChar

StartChar: O
Encoding: 49 79 49
Width: 708
Flags: W
LayerCount: 2
Fore
SplineSet
72 168 m 2,0,-1
 72 522 l 2,1,2
 72 690 72 690 240 690 c 2,3,-1
 468 690 l 2,4,5
 636 690 636 690 636 522 c 2,6,-1
 636 168 l 2,7,8
 636 0 636 0 468 0 c 2,9,-1
 240 0 l 2,10,11
 72 0 72 0 72 168 c 2,0,-1
216 160 m 2,12,13
 216 130 216 130 246 130 c 2,14,-1
 462 130 l 2,15,16
 492 130 492 130 492 160 c 2,17,-1
 492 530 l 2,18,19
 492 560 492 560 462 560 c 2,20,-1
 246 560 l 2,21,22
 216 560 216 560 216 530 c 2,23,-1
 216 160 l 2,12,13
EndSplineSet
EndChar

StartChar: P
Encoding: 50 80 50
Width: 638
Flags: W
LayerCount: 2
Fore
SplineSet
82 0 m 1,0,-1
 82 690 l 1,1,-1
 418 690 l 2,2,3
 586 690 586 690 586 522 c 2,4,-1
 586 388 l 2,5,6
 586 220 586 220 418 220 c 2,7,-1
 226 220 l 1,8,-1
 226 0 l 1,9,-1
 82 0 l 1,0,-1
226 350 m 1,10,-1
 412 350 l 2,11,12
 442 350 442 350 442 380 c 2,13,-1
 442 530 l 2,14,15
 442 560 442 560 412 560 c 2,16,-1
 226 560 l 1,17,-1
 226 350 l 1,10,-1
EndSplineSet
EndChar

StartChar: Q
Encoding: 51 81 51
Width: 708
Flags: W
LayerCount: 2
Fore
SplineSet
72 168 m 2,0,-1
 72 522 l 2,1,2
 72 690 72 690 240 690 c 2,3,-1
 468 690 l 2,4,5
 636 690 636 690 636 522 c 2,6,-1
 636 168 l 2,7,8
 636 30 636 30 524 6 c 1,9,-1
 588 -120 l 1,10,-1
 571 -150 l 1,11,-1
 447 -150 l 1,12,-1
 371 0 l 1,13,-1
 240 0 l 2,14,15
 72 0 72 0 72 168 c 2,0,-1
216 160 m 2,16,17
 216 130 216 130 246 130 c 2,18,-1
 462 130 l 2,19,20
 492 130 492 130 492 160 c 2,21,-1
 492 530 l 2,22,23
 492 560 492 560 462 560 c 2,24,-1
 246 560 l 2,25,26
 216 560 216 560 216 530 c 2,27,-1
 216 160 l 2,16,17
EndSplineSet
EndChar

StartChar: R
Encoding: 52 82 52
Width: 648
Flags: W
LayerCount: 2
Fore
SplineSet
82 0 m 1,0,-1
 82 690 l 1,1,-1
 418 690 l 2,2,3
 586 690 586 690 586 522 c 2,4,-1
 586 408 l 2,5,6
 586 283 586 283 493 251 c 1,7,-1
 606 30 l 1,8,-1
 589 0 l 1,9,-1
 465 0 l 1,10,-1
 343 240 l 1,11,-1
 226 240 l 1,12,-1
 226 0 l 1,13,-1
 82 0 l 1,0,-1
226 370 m 1,14,-1
 412 370 l 2,15,16
 442 370 442 370 442 400 c 2,17,-1
 442 530 l 2,18,19
 442 560 442 560 412 560 c 2,20,-1
 226 560 l 1,21,-1
 226 370 l 1,14,-1
EndSplineSet
EndChar

StartChar: S
Encoding: 53 83 53
Width: 588
Flags: W
LayerCount: 2
Fore
SplineSet
52 52 m 1,0,-1
 52 130 l 1,1,-1
 362 130 l 2,2,3
 392 130 392 130 392 160 c 2,4,-1
 392 233 l 2,5,6
 392 261 392 261 367 266 c 2,7,-1
 172 305 l 2,8,9
 52 329 52 329 52 466 c 2,10,-1
 52 522 l 2,11,12
 52 690 52 690 220 690 c 2,13,-1
 449 690 l 1,14,-1
 516 638 l 1,15,-1
 516 560 l 1,16,-1
 226 560 l 2,17,18
 196 560 196 560 196 530 c 2,19,-1
 196 465 l 2,20,21
 196 437 196 437 221 432 c 2,22,-1
 416 393 l 2,23,24
 536 369 536 369 536 232 c 2,25,-1
 536 168 l 2,26,27
 536 0 536 0 368 0 c 2,28,-1
 119 0 l 1,29,-1
 52 52 l 1,0,-1
EndSplineSet
EndChar

StartChar: T
Encoding: 54 84 54
Width: 612
Flags: W
LayerCount: 2
Fore
SplineSet
24 560 m 1,0,-1
 24 690 l 1,1,-1
 588 690 l 1,2,-1
 588 560 l 1,3,-1
 378 560 l 1,4,-1
 378 0 l 1,5,-1
 234 0 l 1,6,-1
 234 560 l 1,7,-1
 24 560 l 1,0,-1
EndSplineSet
EndChar

StartChar: U
Encoding: 55 85 55
Width: 696
Flags: W
LayerCount: 2
Fore
SplineSet
76 168 m 2,0,-1
 76 690 l 1,1,-1
 220 690 l 1,2,-1
 220 160 l 2,3,4
 220 130 220 130 250 130 c 2,5,-1
 446 130 l 2,6,7
 476 130 476 130 476 160 c 2,8,-1
 476 690 l 1,9,-1
 620 690 l 1,10,-1
 620 168 l 2,11,12
 620 0 620 0 452 0 c 2,13,-1
 244 0 l 2,14,15
 76 0 76 0 76 168 c 2,0,-1
EndSplineSet
EndChar

StartChar: V
Encoding: 56 86 56
Width: 656
Flags: W
LayerCount: 2
Fore
SplineSet
18 663 m 1,0,-1
 36 690 l 1,1,-1
 162 690 l 1,2,-1
 320 130 l 1,3,-1
 336 130 l 1,4,-1
 494 690 l 1,5,-1
 620 690 l 1,6,-1
 638 663 l 1,7,-1
 442 0 l 1,8,-1
 214 0 l 1,9,-1
 18 663 l 1,0,-1
EndSplineSet
EndChar

StartChar: W
Encoding: 57 87 57
Width: 956
Flags: W
LayerCount: 2
Fore
SplineSet
28 663 m 1,0,-1
 48 690 l 1,1,-1
 166 690 l 1,2,-1
 277 130 l 1,3,-1
 288 130 l 1,4,-1
 408 624 l 1,5,-1
 548 624 l 1,6,-1
 668 130 l 1,7,-1
 679 130 l 1,8,-1
 790 690 l 1,9,-1
 908 690 l 1,10,-1
 928 663 l 1,11,-1
 793 0 l 1,12,-1
 564 0 l 1,13,-1
 478 365 l 1,14,-1
 392 0 l 1,15,-1
 163 0 l 1,16,-1
 28 663 l 1,0,-1
EndSplineSet
EndChar

StartChar: X
Encoding: 58 88 58
Width: 646
Flags: W
LayerCount: 2
Fore
SplineSet
28 29 m 1,0,-1
 244 355 l 1,1,-1
 41 661 l 1,2,-1
 55 690 l 1,3,-1
 181 690 l 1,4,-1
 323 470 l 1,5,-1
 465 690 l 1,6,-1
 591 690 l 1,7,-1
 605 661 l 1,8,-1
 402 355 l 1,9,-1
 618 29 l 1,10,-1
 604 0 l 1,11,-1
 478 0 l 1,12,-1
 323 239 l 1,13,-1
 168 0 l 1,14,-1
 42 0 l 1,15,-1
 28 29 l 1,0,-1
EndSplineSet
EndChar

StartChar: Y
Encoding: 59 89 59
Width: 616
Flags: W
LayerCount: 2
Fore
SplineSet
18 663 m 1,0,-1
 35 690 l 1,1,-1
 158 690 l 1,2,-1
 308 397 l 1,3,-1
 458 690 l 1,4,-1
 581 690 l 1,5,-1
 598 663 l 1,6,-1
 380 244 l 1,7,-1
 380 0 l 1,8,-1
 236 0 l 1,9,-1
 236 244 l 1,10,-1
 18 663 l 1,0,-1
EndSplineSet
EndChar

StartChar: Z
Encoding: 60 90 60
Width: 608
Flags: W
LayerCount: 2
Fore
SplineSet
42 0 m 1,0,-1
 42 112 l 1,1,-1
 374 560 l 1,2,-1
 52 560 l 1,3,-1
 52 690 l 1,4,-1
 556 690 l 1,5,-1
 556 578 l 1,6,-1
 224 130 l 1,7,-1
 566 130 l 1,8,-1
 566 0 l 1,9,-1
 42 0 l 1,0,-1
EndSplineSet
EndChar

StartChar: bracketleft
Encoding: 61 91 61
Width: 382
Flags: W
LayerCount: 2
Fore
SplineSet
82 -180 m 1,0,-1
 82 760 l 1,1,-1
 352 760 l 1,2,-1
 352 640 l 1,3,-1
 220 640 l 1,4,-1
 220 -60 l 1,5,-1
 352 -60 l 1,6,-1
 352 -180 l 1,7,-1
 82 -180 l 1,0,-1
EndSplineSet
EndChar

StartChar: backslash
Encoding: 62 92 62
Width: 436
Flags: W
LayerCount: 2
Fore
SplineSet
20 706 m 1,0,-1
 136 748 l 1,1,-1
 416 -16 l 1,2,-1
 300 -58 l 1,3,-1
 20 706 l 1,0,-1
EndSplineSet
EndChar

StartChar: bracketright
Encoding: 63 93 63
Width: 382
Flags: W
LayerCount: 2
Fore
SplineSet
30 -60 m 1,0,-1
 162 -60 l 1,1,-1
 162 640 l 1,2,-1
 30 640 l 1,3,-1
 30 760 l 1,4,-1
 300 760 l 1,5,-1
 300 -180 l 1,6,-1
 30 -180 l 1,7,-1
 30 -60 l 1,0,-1
EndSplineSet
EndChar

StartChar: asciicircum
Encoding: 64 94 64
Width: 564
Flags: W
LayerCount: 2
Fore
SplineSet
32 356 m 1,0,-1
 216 690 l 1,1,-1
 348 690 l 1,2,-1
 532 356 l 1,3,-1
 427 298 l 1,4,-1
 282 564 l 1,5,-1
 137 298 l 1,6,-1
 32 356 l 1,0,-1
EndSplineSet
EndChar

StartChar: underscore
Encoding: 65 95 65
Width: 580
Flags: W
LayerCount: 2
Fore
SplineSet
40 -82 m 1,0,-1
 540 -82 l 1,1,-1
 540 -200 l 1,2,-1
 40 -200 l 1,3,-1
 40 -82 l 1,0,-1
EndSplineSet
EndChar

StartChar: a
Encoding: 67 97 67
Width: 550
Flags: W
LayerCount: 2
Fore
SplineSet
206 0 m 2,0,1
 44 0 44 0 44 159 c 128,-1,2
 44 318 44 318 206 318 c 2,3,-1
 344 318 l 1,4,-1
 344 376 l 2,5,6
 344 408 344 408 312 408 c 2,7,-1
 100 408 l 1,8,-1
 100 483 l 1,9,-1
 160 528 l 1,10,-1
 320 528 l 2,11,12
 482 528 482 528 482 366 c 2,13,-1
 482 0 l 1,14,-1
 206 0 l 2,0,1
182 152 m 2,15,16
 182 120 182 120 214 120 c 2,17,-1
 344 120 l 1,18,-1
 344 210 l 1,19,-1
 214 210 l 2,20,21
 182 210 182 210 182 178 c 2,22,-1
 182 152 l 2,15,16
EndSplineSet
EndChar

StartChar: b
Encoding: 68 98 68
Width: 590
Flags: W
LayerCount: 2
Fore
SplineSet
72 0 m 1,0,-1
 72 740 l 1,1,-1
 210 740 l 1,2,-1
 210 528 l 1,3,-1
 364 528 l 2,4,5
 526 528 526 528 526 366 c 2,6,-1
 526 162 l 2,7,8
 526 0 526 0 364 0 c 2,9,-1
 72 0 l 1,0,-1
210 120 m 1,10,-1
 356 120 l 2,11,12
 388 120 388 120 388 152 c 2,13,-1
 388 376 l 2,14,15
 388 408 388 408 356 408 c 2,16,-1
 210 408 l 1,17,-1
 210 120 l 1,10,-1
EndSplineSet
EndChar

StartChar: c
Encoding: 69 99 69
Width: 518
Flags: W
LayerCount: 2
Fore
SplineSet
64 162 m 2,0,-1
 64 366 l 2,1,2
 64 528 64 528 226 528 c 2,3,-1
 412 528 l 1,4,-1
 472 483 l 1,5,-1
 472 408 l 1,6,-1
 234 408 l 2,7,8
 202 408 202 408 202 376 c 2,9,-1
 202 152 l 2,10,11
 202 120 202 120 234 120 c 2,12,-1
 472 120 l 1,13,-1
 472 45 l 1,14,-1
 412 0 l 1,15,-1
 226 0 l 2,16,17
 64 0 64 0 64 162 c 2,0,-1
EndSplineSet
EndChar

StartChar: d
Encoding: 70 100 70
Width: 590
Flags: W
LayerCount: 2
Fore
SplineSet
64 162 m 2,0,-1
 64 366 l 2,1,2
 64 528 64 528 226 528 c 2,3,-1
 380 528 l 1,4,-1
 380 740 l 1,5,-1
 518 740 l 1,6,-1
 518 0 l 1,7,-1
 226 0 l 2,8,9
 64 0 64 0 64 162 c 2,0,-1
202 152 m 2,10,11
 202 120 202 120 234 120 c 2,12,-1
 380 120 l 1,13,-1
 380 408 l 1,14,-1
 234 408 l 2,15,16
 202 408 202 408 202 376 c 2,17,-1
 202 152 l 2,10,11
EndSplineSet
EndChar

StartChar: e
Encoding: 71 101 71
Width: 582
Flags: W
LayerCount: 2
Fore
SplineSet
64 162 m 2,0,-1
 64 366 l 2,1,2
 64 528 64 528 226 528 c 2,3,-1
 356 528 l 2,4,5
 518 528 518 528 518 366 c 2,6,-1
 518 212 l 1,7,-1
 202 212 l 1,8,-1
 202 152 l 2,9,10
 202 120 202 120 234 120 c 2,11,-1
 498 120 l 1,12,-1
 498 45 l 1,13,-1
 438 0 l 1,14,-1
 226 0 l 2,15,16
 64 0 64 0 64 162 c 2,0,-1
202 320 m 1,17,-1
 380 320 l 1,18,-1
 380 376 l 2,19,20
 380 408 380 408 348 408 c 2,21,-1
 234 408 l 2,22,23
 202 408 202 408 202 376 c 2,24,-1
 202 320 l 1,17,-1
EndSplineSet
EndChar

StartChar: f
Encoding: 72 102 72
Width: 412
Flags: W
LayerCount: 2
Fore
SplineSet
72 0 m 1,0,-1
 72 578 l 2,1,2
 72 740 72 740 234 740 c 2,3,-1
 332 740 l 1,4,-1
 392 695 l 1,5,-1
 392 620 l 1,6,-1
 242 620 l 2,7,8
 210 620 210 620 210 588 c 2,9,-1
 210 528 l 1,10,-1
 382 528 l 1,11,-1
 382 408 l 1,12,-1
 210 408 l 1,13,-1
 210 0 l 1,14,-1
 72 0 l 1,0,-1
EndSplineSet
EndChar

StartChar: g
Encoding: 73 103 73
Width: 582
Flags: W
LayerCount: 2
Fore
SplineSet
60 162 m 2,0,-1
 60 366 l 2,1,2
 60 528 60 528 222 528 c 2,3,-1
 514 528 l 1,4,-1
 514 -38 l 2,5,6
 514 -200 514 -200 352 -200 c 2,7,-1
 165 -200 l 1,8,-1
 105 -155 l 1,9,-1
 105 -80 l 1,10,-1
 344 -80 l 2,11,12
 376 -80 376 -80 376 -48 c 2,13,-1
 376 0 l 1,14,-1
 222 0 l 2,15,16
 60 0 60 0 60 162 c 2,0,-1
198 152 m 2,17,18
 198 120 198 120 230 120 c 2,19,-1
 376 120 l 1,20,-1
 376 408 l 1,21,-1
 230 408 l 2,22,23
 198 408 198 408 198 376 c 2,24,-1
 198 152 l 2,17,18
EndSplineSet
EndChar

StartChar: h
Encoding: 74 104 74
Width: 594
Flags: W
LayerCount: 2
Fore
SplineSet
72 0 m 1,0,-1
 72 740 l 1,1,-1
 210 740 l 1,2,-1
 210 528 l 1,3,-1
 364 528 l 2,4,5
 526 528 526 528 526 366 c 2,6,-1
 526 0 l 1,7,-1
 388 0 l 1,8,-1
 388 376 l 2,9,10
 388 408 388 408 356 408 c 2,11,-1
 210 408 l 1,12,-1
 210 0 l 1,13,-1
 72 0 l 1,0,-1
EndSplineSet
EndChar

StartChar: i
Encoding: 75 105 75
Width: 282
Flags: W
LayerCount: 2
Fore
SplineSet
70 614 m 1,0,-1
 70 748 l 1,1,-1
 212 748 l 1,2,-1
 212 614 l 1,3,-1
 70 614 l 1,0,-1
72 0 m 1,4,-1
 72 528 l 1,5,-1
 210 528 l 1,6,-1
 210 0 l 1,7,-1
 72 0 l 1,4,-1
EndSplineSet
EndChar

StartChar: j
Encoding: 76 106 76
Width: 282
Flags: W
LayerCount: 2
Fore
SplineSet
-10 -93 m 1,0,1
 72 -87 72 -87 72 -7 c 2,2,-1
 72 528 l 1,3,-1
 210 528 l 1,4,-1
 210 10 l 2,5,6
 210 -210 210 -210 -10 -210 c 1,7,-1
 -10 -93 l 1,0,1
70 614 m 1,8,-1
 70 748 l 1,9,-1
 212 748 l 1,10,-1
 212 614 l 1,11,-1
 70 614 l 1,8,-1
EndSplineSet
EndChar

StartChar: k
Encoding: 77 107 77
Width: 580
Flags: W
LayerCount: 2
Fore
SplineSet
72 0 m 1,0,-1
 72 740 l 1,1,-1
 210 740 l 1,2,-1
 210 329 l 1,3,-1
 393 528 l 1,4,-1
 529 528 l 1,5,-1
 540 505 l 1,6,-1
 357 308 l 1,7,-1
 554 23 l 1,8,-1
 543 0 l 1,9,-1
 408 0 l 1,10,-1
 266 209 l 1,11,-1
 210 148 l 1,12,-1
 210 0 l 1,13,-1
 72 0 l 1,0,-1
EndSplineSet
EndChar

StartChar: l
Encoding: 78 108 78
Width: 310
Flags: W
LayerCount: 2
Fore
SplineSet
68 192 m 2,0,-1
 68 740 l 1,1,-1
 206 740 l 1,2,-1
 206 178 l 2,3,4
 206 116 206 116 270 110 c 1,5,-1
 270 -10 l 1,6,7
 68 -10 68 -10 68 192 c 2,0,-1
EndSplineSet
EndChar

StartChar: m
Encoding: 79 109 79
Width: 904
Flags: W
LayerCount: 2
Fore
SplineSet
72 0 m 1,0,-1
 72 528 l 1,1,-1
 674 528 l 2,2,3
 836 528 836 528 836 366 c 2,4,-1
 836 0 l 1,5,-1
 698 0 l 1,6,-1
 698 376 l 2,7,8
 698 408 698 408 666 408 c 2,9,-1
 523 408 l 1,10,-1
 523 0 l 1,11,-1
 385 0 l 1,12,-1
 385 408 l 1,13,-1
 210 408 l 1,14,-1
 210 0 l 1,15,-1
 72 0 l 1,0,-1
EndSplineSet
EndChar

StartChar: n
Encoding: 80 110 80
Width: 594
Flags: W
LayerCount: 2
Fore
SplineSet
72 0 m 1,0,-1
 72 528 l 1,1,-1
 364 528 l 2,2,3
 526 528 526 528 526 366 c 2,4,-1
 526 0 l 1,5,-1
 388 0 l 1,6,-1
 388 376 l 2,7,8
 388 408 388 408 356 408 c 2,9,-1
 210 408 l 1,10,-1
 210 0 l 1,11,-1
 72 0 l 1,0,-1
EndSplineSet
EndChar

StartChar: o
Encoding: 81 111 81
Width: 592
Flags: W
LayerCount: 2
Fore
SplineSet
64 162 m 2,0,-1
 64 366 l 2,1,2
 64 528 64 528 226 528 c 2,3,-1
 366 528 l 2,4,5
 528 528 528 528 528 366 c 2,6,-1
 528 162 l 2,7,8
 528 0 528 0 366 0 c 2,9,-1
 226 0 l 2,10,11
 64 0 64 0 64 162 c 2,0,-1
202 152 m 2,12,13
 202 120 202 120 234 120 c 2,14,-1
 358 120 l 2,15,16
 390 120 390 120 390 152 c 2,17,-1
 390 376 l 2,18,19
 390 408 390 408 358 408 c 2,20,-1
 234 408 l 2,21,22
 202 408 202 408 202 376 c 2,23,-1
 202 152 l 2,12,13
EndSplineSet
EndChar

StartChar: p
Encoding: 82 112 82
Width: 590
Flags: W
LayerCount: 2
Fore
SplineSet
72 -200 m 1,0,-1
 72 528 l 1,1,-1
 364 528 l 2,2,3
 526 528 526 528 526 366 c 2,4,-1
 526 162 l 2,5,6
 526 0 526 0 364 0 c 2,7,-1
 210 0 l 1,8,-1
 210 -200 l 1,9,-1
 72 -200 l 1,0,-1
210 120 m 1,10,-1
 356 120 l 2,11,12
 388 120 388 120 388 152 c 2,13,-1
 388 376 l 2,14,15
 388 408 388 408 356 408 c 2,16,-1
 210 408 l 1,17,-1
 210 120 l 1,10,-1
EndSplineSet
EndChar

StartChar: q
Encoding: 83 113 83
Width: 590
Flags: W
LayerCount: 2
Fore
SplineSet
64 162 m 2,0,-1
 64 366 l 2,1,2
 64 528 64 528 226 528 c 2,3,-1
 518 528 l 1,4,-1
 518 -200 l 1,5,-1
 380 -200 l 1,6,-1
 380 0 l 1,7,-1
 226 0 l 2,8,9
 64 0 64 0 64 162 c 2,0,-1
202 152 m 2,10,11
 202 120 202 120 234 120 c 2,12,-1
 380 120 l 1,13,-1
 380 408 l 1,14,-1
 234 408 l 2,15,16
 202 408 202 408 202 376 c 2,17,-1
 202 152 l 2,10,11
EndSplineSet
EndChar

StartChar: r
Encoding: 84 114 84
Width: 404
Flags: W
LayerCount: 2
Fore
SplineSet
68 0 m 1,0,-1
 68 460 l 1,1,2
 105 528 105 528 210 528 c 2,3,-1
 318 528 l 1,4,-1
 378 483 l 1,5,-1
 378 408 l 1,6,-1
 243 408 l 2,7,8
 216 408 216 408 206 395 c 1,9,-1
 206 0 l 1,10,-1
 68 0 l 1,0,-1
EndSplineSet
EndChar

StartChar: s
Encoding: 85 115 85
Width: 508
Flags: W
LayerCount: 2
Fore
SplineSet
54 45 m 1,0,-1
 54 120 l 1,1,-1
 284 120 l 2,2,3
 318 120 318 120 318 158 c 256,4,5
 318 197 318 197 288 202 c 2,6,-1
 180 220 l 2,7,8
 54 241 54 241 54 366 c 256,9,10
 54 528 54 528 216 528 c 2,11,-1
 371 528 l 1,12,-1
 431 483 l 1,13,-1
 431 408 l 1,14,-1
 225 408 l 2,15,16
 191 408 191 408 191 370 c 256,17,18
 191 331 191 331 221 326 c 2,19,-1
 329 308 l 2,20,21
 455 287 455 287 455 162 c 256,22,23
 455 0 455 0 293 0 c 2,24,-1
 114 0 l 1,25,-1
 54 45 l 1,0,-1
EndSplineSet
EndChar

StartChar: t
Encoding: 86 116 86
Width: 424
Flags: W
LayerCount: 2
Fore
SplineSet
68 162 m 2,0,-1
 68 690 l 1,1,-1
 206 690 l 1,2,-1
 206 528 l 1,3,-1
 378 528 l 1,4,-1
 378 408 l 1,5,-1
 206 408 l 1,6,-1
 206 152 l 2,7,8
 206 120 206 120 238 120 c 2,9,-1
 388 120 l 1,10,-1
 388 45 l 1,11,-1
 328 0 l 1,12,-1
 230 0 l 2,13,14
 68 0 68 0 68 162 c 2,0,-1
EndSplineSet
EndChar

StartChar: u
Encoding: 87 117 87
Width: 594
Flags: W
LayerCount: 2
Fore
SplineSet
68 162 m 2,0,-1
 68 528 l 1,1,-1
 206 528 l 1,2,-1
 206 152 l 2,3,4
 206 120 206 120 238 120 c 2,5,-1
 384 120 l 1,6,-1
 384 528 l 1,7,-1
 522 528 l 1,8,-1
 522 0 l 1,9,-1
 230 0 l 2,10,11
 68 0 68 0 68 162 c 2,0,-1
EndSplineSet
EndChar

StartChar: v
Encoding: 88 118 88
Width: 556
Flags: W
LayerCount: 2
Fore
SplineSet
18 507 m 1,0,-1
 32 528 l 1,1,-1
 151 528 l 1,2,-1
 273 120 l 1,3,-1
 283 120 l 1,4,-1
 405 528 l 1,5,-1
 524 528 l 1,6,-1
 538 507 l 1,7,-1
 379 0 l 1,8,-1
 177 0 l 1,9,-1
 18 507 l 1,0,-1
EndSplineSet
EndChar

StartChar: w
Encoding: 89 119 89
Width: 828
Flags: W
LayerCount: 2
Fore
SplineSet
22 507 m 1,0,-1
 37 528 l 1,1,-1
 153 528 l 1,2,-1
 233 120 l 1,3,-1
 240 120 l 1,4,-1
 336 528 l 1,5,-1
 492 528 l 1,6,-1
 588 120 l 1,7,-1
 595 120 l 1,8,-1
 675 528 l 1,9,-1
 791 528 l 1,10,-1
 806 507 l 1,11,-1
 700 0 l 1,12,-1
 494 0 l 1,13,-1
 414 367 l 1,14,-1
 334 0 l 1,15,-1
 128 0 l 1,16,-1
 22 507 l 1,0,-1
EndSplineSet
EndChar

StartChar: x
Encoding: 90 120 90
Width: 556
Flags: W
LayerCount: 2
Fore
SplineSet
28 23 m 1,0,-1
 201 267 l 1,1,-1
 33 505 l 1,2,-1
 44 528 l 1,3,-1
 171 528 l 1,4,-1
 278 370 l 1,5,-1
 385 528 l 1,6,-1
 512 528 l 1,7,-1
 523 505 l 1,8,-1
 355 267 l 1,9,-1
 528 23 l 1,10,-1
 517 0 l 1,11,-1
 390 0 l 1,12,-1
 278 163 l 1,13,-1
 166 0 l 1,14,-1
 39 0 l 1,15,-1
 28 23 l 1,0,-1
EndSplineSet
EndChar

StartChar: y
Encoding: 91 121 91
Width: 556
Flags: W
LayerCount: 2
Fore
SplineSet
18 507 m 1,0,-1
 32 528 l 1,1,-1
 151 528 l 1,2,-1
 273 120 l 1,3,-1
 283 120 l 1,4,-1
 405 528 l 1,5,-1
 524 528 l 1,6,-1
 538 507 l 1,7,-1
 317 -200 l 1,8,-1
 198 -200 l 1,9,-1
 184 -179 l 1,10,-1
 244 0 l 1,11,-1
 177 0 l 1,12,-1
 18 507 l 1,0,-1
EndSplineSet
EndChar

StartChar: z
Encoding: 92 122 92
Width: 518
Flags: W
LayerCount: 2
Fore
SplineSet
42 0 m 1,0,-1
 42 104 l 1,1,-1
 289 408 l 1,2,-1
 52 408 l 1,3,-1
 52 528 l 1,4,-1
 466 528 l 1,5,-1
 466 424 l 1,6,-1
 220 120 l 1,7,-1
 476 120 l 1,8,-1
 476 0 l 1,9,-1
 42 0 l 1,0,-1
EndSplineSet
EndChar

StartChar: braceleft
Encoding: 93 123 93
Width: 420
Flags: W
LayerCount: 2
Fore
SplineSet
50 251 m 1,0,-1
 50 319 l 1,1,-1
 130 399 l 1,2,-1
 130 598 l 2,3,4
 130 760 130 760 292 760 c 2,5,-1
 390 760 l 1,6,-1
 390 640 l 1,7,-1
 300 640 l 2,8,9
 268 640 268 640 268 608 c 2,10,-1
 268 367 l 1,11,-1
 186 285 l 1,12,-1
 268 203 l 1,13,-1
 268 -28 l 2,14,15
 268 -60 268 -60 300 -60 c 2,16,-1
 390 -60 l 1,17,-1
 390 -180 l 1,18,-1
 292 -180 l 2,19,20
 130 -180 130 -180 130 -18 c 2,21,-1
 130 171 l 1,22,-1
 50 251 l 1,0,-1
EndSplineSet
EndChar

StartChar: bar
Encoding: 94 124 94
Width: 312
Flags: W
LayerCount: 2
Fore
SplineSet
94 -200 m 1,0,-1
 94 740 l 1,1,-1
 218 740 l 1,2,-1
 218 -200 l 1,3,-1
 94 -200 l 1,0,-1
EndSplineSet
EndChar

StartChar: braceright
Encoding: 95 125 95
Width: 420
Flags: W
LayerCount: 2
Fore
SplineSet
30 -60 m 1,0,-1
 120 -60 l 2,1,2
 152 -60 152 -60 152 -28 c 2,3,-1
 152 203 l 1,4,-1
 234 285 l 1,5,-1
 152 367 l 1,6,-1
 152 608 l 2,7,8
 152 640 152 640 120 640 c 2,9,-1
 30 640 l 1,10,-1
 30 760 l 1,11,-1
 128 760 l 2,12,13
 290 760 290 760 290 598 c 2,14,-1
 290 399 l 1,15,-1
 370 319 l 1,16,-1
 370 251 l 1,17,-1
 290 171 l 1,18,-1
 290 -18 l 2,19,20
 290 -180 290 -180 128 -180 c 2,21,-1
 30 -180 l 1,22,-1
 30 -60 l 1,0,-1
EndSplineSet
EndChar

StartChar: asciitilde
Encoding: 96 126 96
Width: 578
Flags: W
LayerCount: 2
Fore
SplineSet
32 322 m 1,0,-1
 125 415 l 2,1,2
 160 450 160 450 209 450 c 128,-1,3
 258 450 258 450 293 415 c 2,4,-1
 355 353 l 2,5,6
 362 346 362 346 369 346 c 128,-1,7
 376 346 376 346 383 353 c 2,8,-1
 462 432 l 1,9,-1
 546 348 l 1,10,-1
 453 255 l 2,11,12
 418 220 418 220 369 220 c 128,-1,13
 320 220 320 220 285 255 c 2,14,-1
 223 317 l 2,15,16
 216 324 216 324 209 324 c 128,-1,17
 202 324 202 324 195 317 c 2,18,-1
 116 238 l 1,19,-1
 32 322 l 1,0,-1
EndSplineSet
EndChar

StartChar: exclamdown
Encoding: 98 161 98
Width: 278
Flags: W
LayerCount: 2
Fore
SplineSet
64 384 m 1,0,-1
 64 528 l 1,1,-1
 214 528 l 1,2,-1
 214 384 l 1,3,-1
 64 384 l 1,0,-1
67 -162 m 1,4,-1
 67 306 l 1,5,-1
 211 306 l 1,6,-1
 211 -162 l 1,7,-1
 67 -162 l 1,4,-1
EndSplineSet
EndChar

StartChar: cent
Encoding: 99 162 99
Width: 578
Flags: W
LayerCount: 2
Fore
SplineSet
82 162 m 2,0,-1
 82 366 l 2,1,2
 82 528 82 528 244 528 c 2,3,-1
 259 528 l 1,4,-1
 259 638 l 1,5,-1
 373 638 l 1,6,-1
 373 528 l 1,7,-1
 430 528 l 1,8,-1
 490 483 l 1,9,-1
 490 408 l 1,10,-1
 252 408 l 2,11,12
 220 408 220 408 220 376 c 2,13,-1
 220 152 l 2,14,15
 220 120 220 120 252 120 c 2,16,-1
 490 120 l 1,17,-1
 490 45 l 1,18,-1
 430 0 l 1,19,-1
 373 0 l 1,20,-1
 373 -110 l 1,21,-1
 259 -110 l 1,22,-1
 259 0 l 1,23,-1
 244 0 l 2,24,25
 82 0 82 0 82 162 c 2,0,-1
EndSplineSet
EndChar

StartChar: sterling
Encoding: 100 163 100
Width: 578
Flags: W
LayerCount: 2
Fore
SplineSet
54 0 m 1,0,-1
 54 130 l 1,1,-1
 142 130 l 1,2,-1
 142 288 l 1,3,-1
 54 288 l 1,4,-1
 54 402 l 1,5,-1
 142 402 l 1,6,-1
 142 522 l 2,7,8
 142 690 142 690 310 690 c 2,9,-1
 447 690 l 1,10,-1
 514 638 l 1,11,-1
 514 560 l 1,12,-1
 316 560 l 2,13,14
 286 560 286 560 286 530 c 2,15,-1
 286 402 l 1,16,-1
 428 402 l 1,17,-1
 428 288 l 1,18,-1
 286 288 l 1,19,-1
 286 130 l 1,20,-1
 534 130 l 1,21,-1
 534 0 l 1,22,-1
 54 0 l 1,0,-1
EndSplineSet
EndChar

StartChar: currency
Encoding: 101 164 101
Width: 578
Flags: W
LayerCount: 2
Fore
SplineSet
43 172 m 1,0,-1
 128 257 l 1,1,-1
 128 443 l 1,2,-1
 43 528 l 1,3,-1
 116 601 l 1,4,-1
 201 516 l 1,5,-1
 377 516 l 1,6,-1
 462 601 l 1,7,-1
 535 528 l 1,8,-1
 450 443 l 1,9,-1
 450 257 l 1,10,-1
 535 172 l 1,11,-1
 462 99 l 1,12,-1
 377 184 l 1,13,-1
 201 184 l 1,14,-1
 116 99 l 1,15,-1
 43 172 l 1,0,-1
236 299 m 2,16,17
 236 287 236 287 248 287 c 2,18,-1
 330 287 l 2,19,20
 342 287 342 287 342 299 c 2,21,-1
 342 401 l 2,22,23
 342 413 342 413 330 413 c 2,24,-1
 248 413 l 2,25,26
 236 413 236 413 236 401 c 2,27,-1
 236 299 l 2,16,17
EndSplineSet
EndChar

StartChar: yen
Encoding: 102 165 102
Width: 578
Flags: W
LayerCount: 2
Fore
SplineSet
9 663 m 1,0,-1
 26 690 l 1,1,-1
 149 690 l 1,2,-1
 289 417 l 1,3,-1
 429 690 l 1,4,-1
 552 690 l 1,5,-1
 569 663 l 1,6,-1
 401 342 l 1,7,-1
 491 342 l 1,8,-1
 491 250 l 1,9,-1
 361 250 l 1,10,-1
 361 190 l 1,11,-1
 491 190 l 1,12,-1
 491 98 l 1,13,-1
 361 98 l 1,14,-1
 361 0 l 1,15,-1
 217 0 l 1,16,-1
 217 98 l 1,17,-1
 87 98 l 1,18,-1
 87 190 l 1,19,-1
 217 190 l 1,20,-1
 217 250 l 1,21,-1
 87 250 l 1,22,-1
 87 342 l 1,23,-1
 177 342 l 1,24,-1
 9 663 l 1,0,-1
EndSplineSet
EndChar

StartChar: brokenbar
Encoding: 103 166 103
Width: 312
Flags: W
LayerCount: 2
Fore
SplineSet
94 176 m 1,0,-1
 218 176 l 1,1,-1
 218 -200 l 1,2,-1
 94 -200 l 1,3,-1
 94 176 l 1,0,-1
94 364 m 1,4,-1
 94 740 l 1,5,-1
 218 740 l 1,6,-1
 218 364 l 1,7,-1
 94 364 l 1,4,-1
EndSplineSet
EndChar

StartChar: section
Encoding: 104 167 104
Width: 544
Flags: W
LayerCount: 2
Fore
SplineSet
72 20 m 1,0,-1
 302 20 l 2,1,2
 336 20 336 20 336 58 c 256,3,4
 336 97 336 97 306 102 c 2,5,-1
 198 120 l 2,6,7
 72 141 72 141 72 266 c 2,8,-1
 72 365 l 1,9,-1
 120 413 l 1,10,11
 72 451 72 451 72 528 c 256,12,13
 72 690 72 690 234 690 c 2,14,-1
 389 690 l 1,15,-1
 449 645 l 1,16,-1
 449 570 l 1,17,-1
 243 570 l 2,18,19
 209 570 209 570 209 532 c 256,20,21
 209 493 209 493 239 488 c 2,22,-1
 347 470 l 2,23,24
 473 449 473 449 473 324 c 2,25,-1
 473 225 l 1,26,-1
 425 177 l 1,27,28
 473 139 473 139 473 62 c 256,29,30
 473 -100 473 -100 311 -100 c 2,31,-1
 132 -100 l 1,32,-1
 72 -55 l 1,33,-1
 72 20 l 1,0,-1
209 270 m 2,34,35
 209 231 209 231 239 226 c 2,36,-1
 336 210 l 1,37,-1
 336 320 l 2,38,39
 336 359 336 359 306 364 c 2,40,-1
 209 380 l 1,41,-1
 209 270 l 2,34,35
EndSplineSet
EndChar

StartChar: copyright
Encoding: 106 169 106
Width: 844
Flags: W
LayerCount: 2
Fore
SplineSet
72 116 m 2,0,-1
 72 574 l 2,1,2
 72 690 72 690 188 690 c 2,3,-1
 656 690 l 2,4,5
 772 690 772 690 772 574 c 2,6,-1
 772 116 l 2,7,8
 772 0 772 0 656 0 c 2,9,-1
 188 0 l 2,10,11
 72 0 72 0 72 116 c 2,0,-1
174 103 m 2,12,13
 174 92 174 92 185 92 c 2,14,-1
 659 92 l 2,15,16
 670 92 670 92 670 103 c 2,17,-1
 670 587 l 2,18,19
 670 598 670 598 659 598 c 2,20,-1
 185 598 l 2,21,22
 174 598 174 598 174 587 c 2,23,-1
 174 103 l 2,12,13
257 280 m 2,24,-1
 257 410 l 2,25,26
 257 532 257 532 379 532 c 2,27,-1
 510 532 l 1,28,-1
 557 495 l 1,29,-1
 557 434 l 1,30,-1
 377 434 l 2,31,32
 365 434 365 434 365 422 c 2,33,-1
 365 268 l 2,34,35
 365 256 365 256 377 256 c 2,36,-1
 557 256 l 1,37,-1
 557 195 l 1,38,-1
 510 158 l 1,39,-1
 379 158 l 2,40,41
 257 158 257 158 257 280 c 2,24,-1
EndSplineSet
EndChar

StartChar: ordfeminine
Encoding: 107 170 107
Width: 404
Flags: W
LayerCount: 2
Fore
SplineSet
34 416 m 2,0,-1
 34 418 l 2,1,2
 34 538 34 538 156 538 c 2,3,-1
 252 538 l 1,4,-1
 252 580 l 2,5,6
 252 592 252 592 240 592 c 2,7,-1
 72 592 l 1,8,-1
 72 653 l 1,9,-1
 119 690 l 1,10,-1
 238 690 l 2,11,12
 360 690 360 690 360 568 c 2,13,-1
 360 296 l 1,14,-1
 156 296 l 2,15,16
 34 296 34 296 34 416 c 2,0,-1
142 406 m 2,17,18
 142 394 142 394 154 394 c 2,19,-1
 252 394 l 1,20,-1
 252 450 l 1,21,-1
 154 450 l 2,22,23
 142 450 142 450 142 438 c 2,24,-1
 142 406 l 2,17,18
EndSplineSet
EndChar

StartChar: logicalnot
Encoding: 109 172 109
Width: 578
Flags: W
LayerCount: 2
Fore
SplineSet
60 326 m 1,0,-1
 60 444 l 1,1,-1
 518 444 l 1,2,-1
 518 146 l 1,3,-1
 394 146 l 1,4,-1
 394 326 l 1,5,-1
 60 326 l 1,0,-1
EndSplineSet
EndChar

StartChar: registered
Encoding: 111 174 111
Width: 844
Flags: W
LayerCount: 2
Fore
SplineSet
72 116 m 2,0,-1
 72 574 l 2,1,2
 72 690 72 690 188 690 c 2,3,-1
 656 690 l 2,4,5
 772 690 772 690 772 574 c 2,6,-1
 772 116 l 2,7,8
 772 0 772 0 656 0 c 2,9,-1
 188 0 l 2,10,11
 72 0 72 0 72 116 c 2,0,-1
174 103 m 2,12,13
 174 92 174 92 185 92 c 2,14,-1
 659 92 l 2,15,16
 670 92 670 92 670 103 c 2,17,-1
 670 587 l 2,18,19
 670 598 670 598 659 598 c 2,20,-1
 185 598 l 2,21,22
 174 598 174 598 174 587 c 2,23,-1
 174 103 l 2,12,13
272 158 m 1,24,-1
 272 532 l 1,25,-1
 455 532 l 2,26,27
 577 532 577 532 577 410 c 2,28,-1
 577 392 l 2,29,30
 577 315 577 315 528 286 c 1,31,-1
 581 181 l 1,32,-1
 569 158 l 1,33,-1
 475 158 l 1,34,-1
 418 270 l 1,35,-1
 380 270 l 1,36,-1
 380 158 l 1,37,-1
 272 158 l 1,24,-1
380 368 m 1,38,-1
 457 368 l 2,39,40
 469 368 469 368 469 380 c 2,41,-1
 469 422 l 2,42,43
 469 434 469 434 457 434 c 2,44,-1
 380 434 l 1,45,-1
 380 368 l 1,38,-1
EndSplineSet
EndChar

StartChar: degree
Encoding: 113 176 113
Width: 412
Flags: W
LayerCount: 2
Fore
SplineSet
52 486 m 2,0,-1
 52 574 l 2,1,2
 52 690 52 690 168 690 c 2,3,-1
 244 690 l 2,4,5
 360 690 360 690 360 574 c 2,6,-1
 360 486 l 2,7,8
 360 370 360 370 244 370 c 2,9,-1
 168 370 l 2,10,11
 52 370 52 370 52 486 c 2,0,-1
154 473 m 2,12,13
 154 462 154 462 165 462 c 2,14,-1
 247 462 l 2,15,16
 258 462 258 462 258 473 c 2,17,-1
 258 587 l 2,18,19
 258 598 258 598 247 598 c 2,20,-1
 165 598 l 2,21,22
 154 598 154 598 154 587 c 2,23,-1
 154 473 l 2,12,13
EndSplineSet
EndChar

StartChar: plusminus
Encoding: 114 177 114
Width: 578
Flags: W
LayerCount: 2
Fore
SplineSet
60 0 m 1,0,-1
 60 118 l 1,1,-1
 518 118 l 1,2,-1
 518 0 l 1,3,-1
 60 0 l 1,0,-1
60 316 m 1,4,-1
 60 434 l 1,5,-1
 227 434 l 1,6,-1
 227 596 l 1,7,-1
 351 596 l 1,8,-1
 351 434 l 1,9,-1
 518 434 l 1,10,-1
 518 316 l 1,11,-1
 351 316 l 1,12,-1
 351 154 l 1,13,-1
 227 154 l 1,14,-1
 227 316 l 1,15,-1
 60 316 l 1,4,-1
EndSplineSet
EndChar

StartChar: uni00B2
Encoding: 115 178 115
Width: 366
Flags: W
LayerCount: 2
Fore
SplineSet
34 274 m 1,0,-1
 34 407 l 2,1,2
 34 499 34 499 124 517 c 10,3,-1
 209 534 l 2,4,5
 224 537 224 537 224 552 c 2,6,-1
 224 580 l 2,7,8
 224 592 224 592 212 592 c 2,9,-1
 46 592 l 1,10,-1
 46 653 l 1,11,-1
 93 690 l 1,12,-1
 210 690 l 2,13,14
 332 690 332 690 332 568 c 2,15,-1
 332 549 l 2,16,17
 332 457 332 457 242 439 c 10,18,-1
 157 422 l 2,19,20
 142 419 142 419 142 404 c 2,21,-1
 142 372 l 1,22,-1
 332 372 l 1,23,-1
 332 274 l 1,24,-1
 34 274 l 1,0,-1
EndSplineSet
EndChar

StartChar: uni00B3
Encoding: 116 179 116
Width: 366
Flags: W
LayerCount: 2
Fore
SplineSet
40 311 m 1,0,-1
 40 372 l 1,1,-1
 212 372 l 2,2,3
 224 372 224 372 224 384 c 2,4,-1
 224 424 l 2,5,6
 224 436 224 436 212 436 c 2,7,-1
 84 436 l 1,8,-1
 84 534 l 1,9,-1
 212 534 l 2,10,11
 224 534 224 534 224 546 c 2,12,-1
 224 580 l 2,13,14
 224 592 224 592 212 592 c 2,15,-1
 46 592 l 1,16,-1
 46 653 l 1,17,-1
 93 690 l 1,18,-1
 210 690 l 2,19,20
 332 690 332 690 332 568 c 2,21,-1
 332 552 l 2,22,23
 332 525 332 525 315 508 c 2,24,-1
 292 485 l 1,25,-1
 315 462 l 2,26,27
 332 445 332 445 332 418 c 2,28,-1
 332 396 l 2,29,30
 332 274 332 274 210 274 c 2,31,-1
 87 274 l 1,32,-1
 40 311 l 1,0,-1
EndSplineSet
EndChar

StartChar: mu
Encoding: 118 181 118
Width: 594
Flags: W
LayerCount: 2
Fore
SplineSet
72 -200 m 1,0,-1
 72 528 l 1,1,-1
 210 528 l 1,2,-1
 210 120 l 1,3,-1
 356 120 l 2,4,5
 388 120 388 120 388 152 c 2,6,-1
 388 528 l 1,7,-1
 526 528 l 1,8,-1
 526 162 l 2,9,10
 526 0 526 0 364 0 c 2,11,-1
 210 0 l 1,12,-1
 210 -200 l 1,13,-1
 72 -200 l 1,0,-1
EndSplineSet
EndChar

StartChar: paragraph
Encoding: 119 182 119
Width: 652
Flags: W
LayerCount: 2
Fore
SplineSet
62 360 m 2,0,-1
 62 540 l 2,1,2
 62 690 62 690 212 690 c 2,3,-1
 352 690 l 1,4,-1
 352 210 l 1,5,-1
 212 210 l 2,6,7
 62 210 62 210 62 360 c 2,0,-1
422 -170 m 1,8,-1
 422 690 l 1,9,-1
 560 690 l 1,10,-1
 560 -170 l 1,11,-1
 422 -170 l 1,8,-1
EndSplineSet
EndChar

StartChar: uni00B9
Encoding: 122 185 122
Width: 366
Flags: W
LayerCount: 2
Fore
SplineSet
52 274 m 1,0,-1
 52 372 l 1,1,-1
 140 372 l 1,2,-1
 140 592 l 1,3,-1
 67 592 l 1,4,-1
 67 653 l 1,5,-1
 114 690 l 1,6,-1
 248 690 l 1,7,-1
 248 372 l 1,8,-1
 326 372 l 1,9,-1
 326 274 l 1,10,-1
 52 274 l 1,0,-1
EndSplineSet
EndChar

StartChar: ordmasculine
Encoding: 123 186 123
Width: 434
Flags: W
LayerCount: 2
Fore
SplineSet
44 418 m 2,0,-1
 44 568 l 2,1,2
 44 690 44 690 166 690 c 2,3,-1
 268 690 l 2,4,5
 390 690 390 690 390 568 c 2,6,-1
 390 418 l 2,7,8
 390 296 390 296 268 296 c 2,9,-1
 166 296 l 2,10,11
 44 296 44 296 44 418 c 2,0,-1
152 406 m 2,12,13
 152 394 152 394 164 394 c 2,14,-1
 270 394 l 2,15,16
 282 394 282 394 282 406 c 2,17,-1
 282 580 l 2,18,19
 282 592 282 592 270 592 c 2,20,-1
 164 592 l 2,21,22
 152 592 152 592 152 580 c 2,23,-1
 152 406 l 2,12,13
EndSplineSet
EndChar

StartChar: questiondown
Encoding: 128 191 128
Width: 504
Flags: W
LayerCount: 2
Fore
SplineSet
50 6 m 2,0,-1
 50 90 l 2,1,2
 50 258 50 258 218 258 c 2,3,-1
 228 258 l 1,4,-1
 228 306 l 1,5,-1
 372 306 l 1,6,-1
 372 128 l 1,7,-1
 224 128 l 2,8,9
 194 128 194 128 194 98 c 2,10,-1
 194 -2 l 2,11,12
 194 -32 194 -32 224 -32 c 2,13,-1
 484 -32 l 1,14,-1
 484 -110 l 1,15,-1
 417 -162 l 1,16,-1
 218 -162 l 2,17,18
 50 -162 50 -162 50 6 c 2,0,-1
225 384 m 1,19,-1
 225 528 l 1,20,-1
 375 528 l 1,21,-1
 375 384 l 1,22,-1
 225 384 l 1,19,-1
EndSplineSet
EndChar

StartChar: AE
Encoding: 135 198 135
Width: 928
Flags: W
LayerCount: 2
Fore
SplineSet
18 27 m 1,0,-1
 223 690 l 1,1,-1
 878 690 l 1,2,-1
 878 560 l 1,3,-1
 562 560 l 1,4,-1
 562 420 l 1,5,-1
 848 420 l 1,6,-1
 848 290 l 1,7,-1
 562 290 l 1,8,-1
 562 130 l 1,9,-1
 878 130 l 1,10,-1
 878 0 l 1,11,-1
 418 0 l 1,12,-1
 418 140 l 1,13,-1
 198 140 l 1,14,-1
 156 0 l 1,15,-1
 36 0 l 1,16,-1
 18 27 l 1,0,-1
237 270 m 1,17,-1
 418 270 l 1,18,-1
 418 560 l 1,19,-1
 325 560 l 1,20,-1
 237 270 l 1,17,-1
EndSplineSet
EndChar

StartChar: Eth
Encoding: 145 208 145
Width: 704
Flags: W
LayerCount: 2
Fore
SplineSet
20 288 m 1,0,-1
 20 402 l 1,1,-1
 98 402 l 1,2,-1
 98 690 l 1,3,-1
 388 690 l 2,4,5
 642 690 642 690 642 436 c 2,6,-1
 642 254 l 2,7,8
 642 0 642 0 388 0 c 2,9,-1
 98 0 l 1,10,-1
 98 288 l 1,11,-1
 20 288 l 1,0,-1
242 130 m 1,12,-1
 388 130 l 2,13,14
 498 130 498 130 498 240 c 2,15,-1
 498 450 l 2,16,17
 498 560 498 560 388 560 c 2,18,-1
 242 560 l 1,19,-1
 242 402 l 1,20,-1
 370 402 l 1,21,-1
 370 288 l 1,22,-1
 242 288 l 1,23,-1
 242 130 l 1,12,-1
EndSplineSet
EndChar

StartChar: multiply
Encoding: 152 215 152
Width: 578
Flags: W
LayerCount: 2
Fore
SplineSet
67 197 m 1,0,-1
 205 335 l 1,1,-1
 67 473 l 1,2,-1
 151 557 l 1,3,-1
 289 419 l 1,4,-1
 427 557 l 1,5,-1
 511 473 l 1,6,-1
 373 335 l 1,7,-1
 511 197 l 1,8,-1
 427 113 l 1,9,-1
 289 251 l 1,10,-1
 151 113 l 1,11,-1
 67 197 l 1,0,-1
EndSplineSet
EndChar

StartChar: Oslash
Encoding: 153 216 153
Width: 708
Flags: W
LayerCount: 2
Fore
SplineSet
72 168 m 2,0,-1
 72 522 l 2,1,2
 72 690 72 690 240 690 c 2,3,-1
 468 690 l 2,4,5
 636 690 636 690 636 522 c 2,6,-1
 636 168 l 2,7,8
 636 0 636 0 468 0 c 2,9,-1
 240 0 l 2,10,11
 72 0 72 0 72 168 c 2,0,-1
216 289 m 1,12,-1
 491 537 l 1,13,14
 488 560 488 560 462 560 c 2,15,-1
 246 560 l 2,16,17
 216 560 216 560 216 530 c 2,18,-1
 216 289 l 1,12,-1
217 153 m 1,19,20
 220 130 220 130 246 130 c 2,21,-1
 462 130 l 2,22,23
 492 130 492 130 492 160 c 2,24,-1
 492 401 l 1,25,-1
 217 153 l 1,19,20
EndSplineSet
EndChar

StartChar: Thorn
Encoding: 159 222 159
Width: 638
Flags: W
LayerCount: 2
Fore
SplineSet
82 0 m 1,0,-1
 82 690 l 1,1,-1
 226 690 l 1,2,-1
 226 590 l 1,3,-1
 418 590 l 2,4,5
 586 590 586 590 586 422 c 2,6,-1
 586 282 l 2,7,8
 586 114 586 114 418 114 c 2,9,-1
 226 114 l 1,10,-1
 226 0 l 1,11,-1
 82 0 l 1,0,-1
226 244 m 1,12,-1
 412 244 l 2,13,14
 442 244 442 244 442 274 c 2,15,-1
 442 430 l 2,16,17
 442 460 442 460 412 460 c 2,18,-1
 226 460 l 1,19,-1
 226 244 l 1,12,-1
EndSplineSet
EndChar

StartChar: germandbls
Encoding: 160 223 160
Width: 620
Flags: W
LayerCount: 2
Fore
SplineSet
72 0 m 1,0,-1
 72 578 l 2,1,2
 72 740 72 740 234 740 c 2,3,-1
 374 740 l 2,4,5
 536 740 536 740 536 578 c 2,6,-1
 536 491 l 2,7,8
 536 457 536 457 516 433 c 2,9,-1
 481 391 l 1,10,-1
 523 356 l 2,11,12
 556 328 556 328 556 276 c 2,13,-1
 556 162 l 2,14,15
 556 0 556 0 394 0 c 2,16,-1
 332 0 l 1,17,-1
 272 45 l 1,18,-1
 272 120 l 1,19,-1
 386 120 l 2,20,21
 418 120 418 120 418 152 c 2,22,-1
 418 293 l 2,23,24
 418 325 418 325 386 325 c 2,25,-1
 282 325 l 1,26,-1
 282 445 l 1,27,-1
 366 445 l 2,28,29
 398 445 398 445 398 477 c 2,30,-1
 398 588 l 2,31,32
 398 620 398 620 366 620 c 2,33,-1
 242 620 l 2,34,35
 210 620 210 620 210 588 c 2,36,-1
 210 0 l 1,37,-1
 72 0 l 1,0,-1
EndSplineSet
EndChar

StartChar: ae
Encoding: 167 230 167
Width: 862
Flags: W
LayerCount: 2
Fore
SplineSet
206 0 m 2,0,1
 44 0 44 0 44 159 c 128,-1,2
 44 318 44 318 206 318 c 2,3,-1
 344 318 l 1,4,-1
 344 376 l 2,5,6
 344 408 344 408 312 408 c 2,7,-1
 100 408 l 1,8,-1
 100 483 l 1,9,-1
 160 528 l 1,10,-1
 303 528 l 2,11,12
 373 528 373 528 413 488 c 1,13,14
 453 528 453 528 524 528 c 2,15,-1
 636 528 l 2,16,17
 798 528 798 528 798 366 c 2,18,-1
 798 212 l 1,19,-1
 482 212 l 1,20,-1
 482 152 l 2,21,22
 482 120 482 120 514 120 c 2,23,-1
 778 120 l 1,24,-1
 778 45 l 1,25,-1
 718 0 l 1,26,-1
 524 0 l 2,27,28
 453 0 453 0 413 40 c 1,29,30
 373 0 373 0 303 0 c 2,31,-1
 206 0 l 2,0,1
182 152 m 2,32,33
 182 120 182 120 214 120 c 2,34,-1
 312 120 l 2,35,36
 344 120 344 120 344 152 c 2,37,-1
 344 210 l 1,38,-1
 214 210 l 2,39,40
 182 210 182 210 182 178 c 2,41,-1
 182 152 l 2,32,33
482 320 m 1,42,-1
 660 320 l 1,43,-1
 660 376 l 2,44,45
 660 408 660 408 628 408 c 2,46,-1
 514 408 l 2,47,48
 482 408 482 408 482 376 c 2,49,-1
 482 320 l 1,42,-1
EndSplineSet
EndChar

StartChar: eth
Encoding: 177 240 177
Width: 592
Flags: W
LayerCount: 2
Fore
SplineSet
64 162 m 2,0,-1
 64 288 l 2,1,2
 64 450 64 450 226 450 c 2,3,-1
 374 450 l 1,4,-1
 315 542 l 1,5,-1
 206 490 l 1,6,-1
 162 585 l 1,7,-1
 259 632 l 1,8,-1
 219 694 l 1,9,-1
 328 764 l 1,10,-1
 376 688 l 1,11,-1
 464 729 l 1,12,-1
 508 634 l 1,13,-1
 432 599 l 1,14,-1
 489 509 l 2,15,16
 528 447 528 447 528 383 c 2,17,-1
 528 162 l 2,18,19
 528 0 528 0 366 0 c 2,20,-1
 226 0 l 2,21,22
 64 0 64 0 64 162 c 2,0,-1
202 152 m 2,23,24
 202 120 202 120 234 120 c 2,25,-1
 358 120 l 2,26,27
 390 120 390 120 390 152 c 2,28,-1
 390 330 l 1,29,-1
 234 330 l 2,30,31
 202 330 202 330 202 298 c 2,32,-1
 202 152 l 2,23,24
EndSplineSet
EndChar

StartChar: divide
Encoding: 184 247 184
Width: 578
Flags: W
LayerCount: 2
Fore
SplineSet
60 276 m 1,0,-1
 60 394 l 1,1,-1
 518 394 l 1,2,-1
 518 276 l 1,3,-1
 60 276 l 1,0,-1
229 85 m 1,4,-1
 229 205 l 1,5,-1
 349 205 l 1,6,-1
 349 85 l 1,7,-1
 229 85 l 1,4,-1
229 465 m 1,8,-1
 229 585 l 1,9,-1
 349 585 l 1,10,-1
 349 465 l 1,11,-1
 229 465 l 1,8,-1
EndSplineSet
EndChar

StartChar: oslash
Encoding: 185 248 185
Width: 592
Flags: W
LayerCount: 2
Fore
SplineSet
64 162 m 2,0,-1
 64 366 l 2,1,2
 64 528 64 528 226 528 c 2,3,-1
 366 528 l 2,4,5
 528 528 528 528 528 366 c 2,6,-1
 528 162 l 2,7,8
 528 0 528 0 366 0 c 2,9,-1
 226 0 l 2,10,11
 64 0 64 0 64 162 c 2,0,-1
202 244 m 1,12,-1
 378 402 l 1,13,14
 368 408 368 408 358 408 c 2,15,-1
 234 408 l 2,16,17
 202 408 202 408 202 376 c 2,18,-1
 202 244 l 1,12,-1
214 126 m 1,19,20
 224 120 224 120 234 120 c 2,21,-1
 358 120 l 2,22,23
 390 120 390 120 390 152 c 2,24,-1
 390 284 l 1,25,-1
 214 126 l 1,19,20
EndSplineSet
EndChar

StartChar: thorn
Encoding: 191 254 191
Width: 590
Flags: W
LayerCount: 2
Fore
SplineSet
72 -200 m 1,0,-1
 72 740 l 1,1,-1
 210 740 l 1,2,-1
 210 528 l 1,3,-1
 364 528 l 2,4,5
 526 528 526 528 526 366 c 2,6,-1
 526 162 l 2,7,8
 526 0 526 0 364 0 c 2,9,-1
 210 0 l 1,10,-1
 210 -200 l 1,11,-1
 72 -200 l 1,0,-1
210 120 m 1,12,-1
 356 120 l 2,13,14
 388 120 388 120 388 152 c 2,15,-1
 388 376 l 2,16,17
 388 408 388 408 356 408 c 2,18,-1
 210 408 l 1,19,-1
 210 120 l 1,12,-1
EndSplineSet
EndChar

StartChar: dcroat
Encoding: 206 273 206
Width: 590
Flags: W
LayerCount: 2
Fore
SplineSet
64 162 m 2,0,-1
 64 366 l 2,1,2
 64 528 64 528 226 528 c 2,3,-1
 380 528 l 1,4,-1
 380 587 l 1,5,-1
 234 587 l 1,6,-1
 234 681 l 1,7,-1
 380 681 l 1,8,-1
 380 740 l 1,9,-1
 518 740 l 1,10,-1
 518 681 l 1,11,-1
 586 681 l 1,12,-1
 586 587 l 1,13,-1
 518 587 l 1,14,-1
 518 0 l 1,15,-1
 226 0 l 2,16,17
 64 0 64 0 64 162 c 2,0,-1
202 152 m 2,18,19
 202 120 202 120 234 120 c 2,20,-1
 380 120 l 1,21,-1
 380 408 l 1,22,-1
 234 408 l 2,23,24
 202 408 202 408 202 376 c 2,25,-1
 202 152 l 2,18,19
EndSplineSet
EndChar

StartChar: dotlessi
Encoding: 224 305 224
Width: 282
Flags: W
LayerCount: 2
Fore
SplineSet
72 0 m 1,0,-1
 72 528 l 1,1,-1
 210 528 l 1,2,-1
 210 0 l 1,3,-1
 72 0 l 1,0,-1
EndSplineSet
EndChar

StartChar: Lslash
Encoding: 233 321 233
Width: 577
Flags: W
LayerCount: 2
Fore
SplineSet
10 302 m 1,0,-1
 111 360 l 1,1,-1
 111 690 l 1,2,-1
 255 690 l 1,3,-1
 255 443 l 1,4,-1
 370 510 l 1,5,-1
 426 413 l 1,6,-1
 255 314 l 1,7,-1
 255 130 l 1,8,-1
 553 130 l 1,9,-1
 553 0 l 1,10,-1
 111 0 l 1,11,-1
 111 231 l 1,12,-1
 66 205 l 1,13,-1
 10 302 l 1,0,-1
EndSplineSet
EndChar

StartChar: lslash
Encoding: 234 322 234
Width: 334
Flags: W
LayerCount: 2
Fore
SplineSet
-6 348 m 1,0,-1
 86 401 l 1,1,-1
 86 740 l 1,2,-1
 224 740 l 1,3,-1
 224 480 l 1,4,-1
 287 517 l 1,5,-1
 339 426 l 1,6,-1
 224 360 l 1,7,-1
 224 178 l 2,8,9
 224 116 224 116 288 110 c 1,10,-1
 288 -10 l 1,11,12
 86 -10 86 -10 86 192 c 2,13,-1
 86 280 l 1,14,-1
 46 257 l 1,15,-1
 -6 348 l 1,0,-1
EndSplineSet
EndChar

StartChar: OE
Encoding: 245 338 245
Width: 976
Flags: W
LayerCount: 2
Fore
SplineSet
72 168 m 2,0,-1
 72 522 l 2,1,2
 72 690 72 690 240 690 c 2,3,-1
 926 690 l 1,4,-1
 926 560 l 1,5,-1
 610 560 l 1,6,-1
 610 420 l 1,7,-1
 896 420 l 1,8,-1
 896 290 l 1,9,-1
 610 290 l 1,10,-1
 610 130 l 1,11,-1
 926 130 l 1,12,-1
 926 0 l 1,13,-1
 240 0 l 2,14,15
 72 0 72 0 72 168 c 2,0,-1
216 160 m 2,16,17
 216 130 216 130 246 130 c 2,18,-1
 466 130 l 1,19,-1
 466 560 l 1,20,-1
 246 560 l 2,21,22
 216 560 216 560 216 530 c 2,23,-1
 216 160 l 2,16,17
EndSplineSet
EndChar

StartChar: oe
Encoding: 246 339 246
Width: 908
Flags: W
LayerCount: 2
Fore
SplineSet
64 162 m 2,0,-1
 64 366 l 2,1,2
 64 528 64 528 226 528 c 2,3,-1
 349 528 l 2,4,5
 419 528 419 528 459 488 c 1,6,7
 499 528 499 528 569 528 c 2,8,-1
 682 528 l 2,9,10
 844 528 844 528 844 366 c 2,11,-1
 844 212 l 1,12,-1
 528 212 l 1,13,-1
 528 152 l 2,14,15
 528 120 528 120 560 120 c 2,16,-1
 824 120 l 1,17,-1
 824 45 l 1,18,-1
 764 0 l 1,19,-1
 569 0 l 2,20,21
 499 0 499 0 459 40 c 1,22,23
 419 0 419 0 349 0 c 2,24,-1
 226 0 l 2,25,26
 64 0 64 0 64 162 c 2,0,-1
202 152 m 2,27,28
 202 120 202 120 234 120 c 2,29,-1
 358 120 l 2,30,31
 390 120 390 120 390 152 c 2,32,-1
 390 376 l 2,33,34
 390 408 390 408 358 408 c 2,35,-1
 234 408 l 2,36,37
 202 408 202 408 202 376 c 2,38,-1
 202 152 l 2,27,28
528 320 m 1,39,-1
 706 320 l 1,40,-1
 706 376 l 2,41,42
 706 408 706 408 674 408 c 2,43,-1
 560 408 l 2,44,45
 528 408 528 408 528 376 c 2,46,-1
 528 320 l 1,39,-1
EndSplineSet
EndChar

StartChar: florin
Encoding: 278 402 278
Width: 578
Flags: W
LayerCount: 2
Fore
SplineSet
40 -42 m 1,0,-1
 150 -42 l 2,1,2
 182 -42 182 -42 182 -10 c 2,3,-1
 182 578 l 2,4,5
 182 740 182 740 344 740 c 2,6,-1
 442 740 l 1,7,-1
 502 695 l 1,8,-1
 502 620 l 1,9,-1
 352 620 l 2,10,11
 320 620 320 620 320 588 c 2,12,-1
 320 528 l 1,13,-1
 492 528 l 1,14,-1
 492 408 l 1,15,-1
 320 408 l 1,16,-1
 320 0 l 2,17,18
 320 -162 320 -162 158 -162 c 2,19,-1
 100 -162 l 1,20,-1
 40 -117 l 1,21,-1
 40 -42 l 1,0,-1
EndSplineSet
EndChar

StartChar: uni0237
Encoding: 283 567 283
Width: 282
Flags: W
LayerCount: 2
Fore
SplineSet
-10 -93 m 1,0,1
 72 -87 72 -87 72 -7 c 2,2,-1
 72 528 l 1,3,-1
 210 528 l 1,4,-1
 210 10 l 2,5,6
 210 -210 210 -210 -10 -210 c 1,7,-1
 -10 -93 l 1,0,1
EndSplineSet
EndChar

StartChar: uni0300
Encoding: 293 768 293
Width: 0
Flags: W
LayerCount: 2
Fore
SplineSet
-419 724 m 1,0,-1
 -343 796 l 1,1,-1
 -205 639 l 1,2,-1
 -271 576 l 1,3,-1
 -419 724 l 1,0,-1
EndSplineSet
EndChar

StartChar: uni0301
Encoding: 294 769 294
Width: 0
Flags: W
LayerCount: 2
Fore
SplineSet
-375 639 m 1,0,-1
 -237 796 l 1,1,-1
 -161 724 l 1,2,-1
 -309 576 l 1,3,-1
 -375 639 l 1,0,-1
EndSplineSet
EndChar

StartChar: uni0302
Encoding: 295 770 295
Width: 0
Flags: W
LayerCount: 2
Fore
SplineSet
-447 642 m 1,0,-1
 -290 796 l 1,1,-1
 -133 642 l 1,2,-1
 -192 580 l 1,3,-1
 -290 673 l 1,4,-1
 -388 580 l 1,5,-1
 -447 642 l 1,0,-1
EndSplineSet
EndChar

StartChar: uni0303
Encoding: 296 771 296
Width: 0
Flags: W
LayerCount: 2
Fore
SplineSet
-467 652 m 1,0,-1
 -398 721 l 2,1,2
 -379 740 -379 740 -344 740 c 128,-1,3
 -309 740 -309 740 -290 721 c 2,4,-1
 -242 673 l 2,5,6
 -239 670 -239 670 -236 670 c 128,-1,7
 -233 670 -233 670 -230 673 c 2,8,-1
 -172 731 l 1,9,-1
 -113 672 l 1,10,-1
 -182 603 l 2,11,12
 -201 584 -201 584 -236 584 c 128,-1,13
 -271 584 -271 584 -290 603 c 2,14,-1
 -338 651 l 2,15,16
 -341 654 -341 654 -344 654 c 128,-1,17
 -347 654 -347 654 -350 651 c 2,18,-1
 -408 593 l 1,19,-1
 -467 652 l 1,0,-1
EndSplineSet
EndChar

StartChar: uni0304
Encoding: 297 772 297
Width: 0
Flags: W
LayerCount: 2
Fore
SplineSet
-436 618 m 1,0,-1
 -436 714 l 1,1,-1
 -144 714 l 1,2,-1
 -144 618 l 1,3,-1
 -436 618 l 1,0,-1
EndSplineSet
EndChar

StartChar: uni0306
Encoding: 298 774 298
Width: 0
Flags: W
LayerCount: 2
Fore
SplineSet
-428 681 m 2,0,-1
 -428 746 l 1,1,-1
 -348 746 l 1,2,-1
 -348 684 l 2,3,4
 -348 676 -348 676 -340 676 c 2,5,-1
 -240 676 l 2,6,7
 -232 676 -232 676 -232 684 c 2,8,-1
 -232 746 l 1,9,-1
 -152 746 l 1,10,-1
 -152 681 l 2,11,12
 -152 596 -152 596 -237 596 c 2,13,-1
 -343 596 l 2,14,15
 -428 596 -428 596 -428 681 c 2,0,-1
EndSplineSet
EndChar

StartChar: uni0307
Encoding: 299 775 299
Width: 0
Flags: W
LayerCount: 2
Fore
SplineSet
-361 614 m 1,0,-1
 -361 748 l 1,1,-1
 -219 748 l 1,2,-1
 -219 614 l 1,3,-1
 -361 614 l 1,0,-1
EndSplineSet
EndChar

StartChar: uni0308
Encoding: 300 776 300
Width: 0
Flags: W
LayerCount: 2
Fore
SplineSet
-450 604 m 1,0,-1
 -450 728 l 1,1,-1
 -330 728 l 1,2,-1
 -330 604 l 1,3,-1
 -450 604 l 1,0,-1
-250 604 m 1,4,-1
 -250 728 l 1,5,-1
 -130 728 l 1,6,-1
 -130 604 l 1,7,-1
 -250 604 l 1,4,-1
EndSplineSet
EndChar

StartChar: uni030A
Encoding: 301 778 301
Width: 0
Flags: W
LayerCount: 2
Fore
SplineSet
-406 649 m 2,0,-1
 -406 707 l 2,1,2
 -406 787 -406 787 -326 787 c 2,3,-1
 -254 787 l 2,4,5
 -174 787 -174 787 -174 707 c 2,6,-1
 -174 649 l 2,7,8
 -174 569 -174 569 -254 569 c 2,9,-1
 -326 569 l 2,10,11
 -406 569 -406 569 -406 649 c 2,0,-1
-328 645 m 2,12,13
 -328 637 -328 637 -320 637 c 2,14,-1
 -260 637 l 2,15,16
 -252 637 -252 637 -252 645 c 2,17,-1
 -252 711 l 2,18,19
 -252 719 -252 719 -260 719 c 2,20,-1
 -320 719 l 2,21,22
 -328 719 -328 719 -328 711 c 2,23,-1
 -328 645 l 2,12,13
EndSplineSet
EndChar

StartChar: uni030B
Encoding: 302 779 302
Width: 0
Flags: W
LayerCount: 2
Fore
SplineSet
-454 631 m 1,0,-1
 -338 796 l 1,1,-1
 -257 734 l 1,2,-1
 -384 576 l 1,3,-1
 -454 631 l 1,0,-1
-269 631 m 1,4,-1
 -153 796 l 1,5,-1
 -72 734 l 1,6,-1
 -199 576 l 1,7,-1
 -269 631 l 1,4,-1
EndSplineSet
EndChar

StartChar: uni030C
Encoding: 303 780 303
Width: 0
Flags: W
LayerCount: 2
Fore
SplineSet
-447 724 m 1,0,-1
 -388 786 l 1,1,-1
 -290 693 l 1,2,-1
 -192 786 l 1,3,-1
 -133 724 l 1,4,-1
 -290 570 l 1,5,-1
 -447 724 l 1,0,-1
EndSplineSet
EndChar

StartChar: uni0326
Encoding: 304 806 304
Width: 0
Flags: W
LayerCount: 2
Fore
SplineSet
-378 -179 m 1,0,-1
 -348 -50 l 1,1,-1
 -244 -50 l 1,2,-1
 -230 -71 l 1,3,-1
 -285 -205 l 1,4,-1
 -378 -179 l 1,0,-1
EndSplineSet
EndChar

StartChar: uni0327
Encoding: 305 807 305
Width: 0
Flags: W
LayerCount: 2
Fore
SplineSet
-402 -90 m 1,0,-1
 -300 -90 l 2,1,2
 -288 -90 -288 -90 -288 -78 c 2,3,-1
 -288 60 l 1,4,-1
 -182 60 l 1,5,-1
 -182 -64 l 2,6,7
 -182 -186 -182 -186 -304 -186 c 2,8,-1
 -355 -186 l 1,9,-1
 -402 -149 l 1,10,-1
 -402 -90 l 1,0,-1
EndSplineSet
EndChar

StartChar: uni0328
Encoding: 306 808 306
Width: 0
Flags: W
LayerCount: 2
Fore
SplineSet
-386 -26 m 2,0,1
 -386 96 -386 96 -264 96 c 2,2,-1
 -244 96 l 1,3,-1
 -244 0 l 1,4,-1
 -268 0 l 2,5,6
 -280 0 -280 0 -280 -12 c 2,7,-1
 -280 -78 l 2,8,9
 -280 -90 -280 -90 -268 -90 c 2,10,-1
 -170 -90 l 1,11,-1
 -170 -149 l 1,12,-1
 -217 -186 l 1,13,-1
 -264 -186 l 2,14,15
 -386 -186 -386 -186 -386 -64 c 2,16,-1
 -386 -26 l 2,0,1
EndSplineSet
EndChar

StartChar: pi
Encoding: 307 960 307
Width: 598
Flags: W
LayerCount: 2
Fore
SplineSet
72 0 m 1,0,-1
 72 528 l 1,1,-1
 526 528 l 1,2,-1
 526 0 l 1,3,-1
 388 0 l 1,4,-1
 388 408 l 1,5,-1
 210 408 l 1,6,-1
 210 0 l 1,7,-1
 72 0 l 1,0,-1
EndSplineSet
EndChar

StartChar: uni1E9E
Encoding: 308 7838 308
Width: 702
Flags: W
LayerCount: 2
Fore
SplineSet
76 0 m 1,0,-1
 76 522 l 2,1,2
 76 690 76 690 244 690 c 2,3,-1
 580 690 l 1,4,-1
 580 578 l 1,5,-1
 467 420 l 1,6,-1
 482 420 l 2,7,8
 650 420 650 420 650 252 c 2,9,-1
 650 168 l 2,10,11
 650 0 650 0 482 0 c 2,12,-1
 355 0 l 1,13,-1
 288 52 l 1,14,-1
 288 130 l 1,15,-1
 476 130 l 2,16,17
 506 130 506 130 506 160 c 2,18,-1
 506 260 l 2,19,20
 506 290 506 290 476 290 c 2,21,-1
 298 290 l 1,22,-1
 298 402 l 1,23,-1
 411 560 l 1,24,-1
 250 560 l 2,25,26
 220 560 220 560 220 530 c 2,27,-1
 220 0 l 1,28,-1
 76 0 l 1,0,-1
EndSplineSet
EndChar

StartChar: endash
Encoding: 309 8211 309
Width: 580
Flags: W
LayerCount: 2
Fore
SplineSet
40 246 m 1,0,-1
 40 364 l 1,1,-1
 540 364 l 1,2,-1
 540 246 l 1,3,-1
 40 246 l 1,0,-1
EndSplineSet
EndChar

StartChar: emdash
Encoding: 310 8212 310
Width: 1000
Flags: W
LayerCount: 2
Fore
SplineSet
40 246 m 1,0,-1
 40 364 l 1,1,-1
 960 364 l 1,2,-1
 960 246 l 1,3,-1
 40 246 l 1,0,-1
EndSplineSet
EndChar

StartChar: quoteleft
Encoding: 311 8216 311
Width: 278
Flags: W
LayerCount: 2
Fore
SplineSet
36 487 m 1,0,-1
 140 760 l 1,1,-1
 242 734 l 1,2,-1
 173 466 l 1,3,-1
 50 466 l 1,4,-1
 36 487 l 1,0,-1
EndSplineSet
EndChar

StartChar: quoteright
Encoding: 312 8217 312
Width: 278
Flags: W
LayerCount: 2
Fore
SplineSet
32 472 m 1,0,-1
 101 740 l 1,1,-1
 224 740 l 1,2,-1
 238 719 l 1,3,-1
 134 446 l 1,4,-1
 32 472 l 1,0,-1
EndSplineSet
EndChar

StartChar: quotesinglbase
Encoding: 313 8218 313
Width: 278
Flags: W
LayerCount: 2
Fore
SplineSet
22 -124 m 1,0,-1
 91 144 l 1,1,-1
 214 144 l 1,2,-1
 228 123 l 1,3,-1
 124 -150 l 1,4,-1
 22 -124 l 1,0,-1
EndSplineSet
EndChar

StartChar: dagger
Encoding: 317 8224 317
Width: 498
Flags: W
LayerCount: 2
Fore
SplineSet
50 396 m 1,0,-1
 50 514 l 1,1,-1
 187 514 l 1,2,-1
 187 690 l 1,3,-1
 311 690 l 1,4,-1
 311 514 l 1,5,-1
 448 514 l 1,6,-1
 448 396 l 1,7,-1
 311 396 l 1,8,-1
 311 -100 l 1,9,-1
 187 -100 l 1,10,-1
 187 396 l 1,11,-1
 50 396 l 1,0,-1
EndSplineSet
EndChar

StartChar: daggerdbl
Encoding: 318 8225 318
Width: 498
Flags: W
LayerCount: 2
Fore
SplineSet
50 76 m 1,0,-1
 50 194 l 1,1,-1
 187 194 l 1,2,-1
 187 396 l 1,3,-1
 50 396 l 1,4,-1
 50 514 l 1,5,-1
 187 514 l 1,6,-1
 187 690 l 1,7,-1
 311 690 l 1,8,-1
 311 514 l 1,9,-1
 448 514 l 1,10,-1
 448 396 l 1,11,-1
 311 396 l 1,12,-1
 311 194 l 1,13,-1
 448 194 l 1,14,-1
 448 76 l 1,15,-1
 311 76 l 1,16,-1
 311 -100 l 1,17,-1
 187 -100 l 1,18,-1
 187 76 l 1,19,-1
 50 76 l 1,0,-1
EndSplineSet
EndChar

StartChar: bullet
Encoding: 319 8226 319
Width: 368
Flags: W
LayerCount: 2
Fore
SplineSet
64 240 m 1,0,-1
 64 480 l 1,1,-1
 304 480 l 1,2,-1
 304 240 l 1,3,-1
 64 240 l 1,0,-1
EndSplineSet
EndChar

StartChar: guilsinglleft
Encoding: 322 8249 322
Width: 345
Flags: W
LayerCount: 2
Fore
SplineSet
30 315 m 1,0,-1
 220 554 l 1,1,-1
 305 484 l 1,2,-1
 175 315 l 1,3,-1
 305 146 l 1,4,-1
 220 76 l 1,5,-1
 30 315 l 1,0,-1
EndSplineSet
EndChar

StartChar: guilsinglright
Encoding: 323 8250 323
Width: 345
Flags: W
LayerCount: 2
Fore
SplineSet
40 146 m 1,0,-1
 170 315 l 1,1,-1
 40 484 l 1,2,-1
 125 554 l 1,3,-1
 315 315 l 1,4,-1
 125 76 l 1,5,-1
 40 146 l 1,0,-1
EndSplineSet
EndChar

StartChar: fraction
Encoding: 324 8260 324
Width: 150
Flags: W
LayerCount: 2
Fore
SplineSet
-140 40 m 1,0,-1
 190 700 l 1,1,-1
 290 650 l 1,2,-1
 -40 -10 l 1,3,-1
 -140 40 l 1,0,-1
EndSplineSet
EndChar

StartChar: uni2070
Encoding: 325 8304 325
Width: 366
Flags: W
LayerCount: 2
Fore
SplineSet
34 396 m 2,0,-1
 34 568 l 2,1,2
 34 690 34 690 156 690 c 2,3,-1
 210 690 l 2,4,5
 332 690 332 690 332 568 c 2,6,-1
 332 396 l 2,7,8
 332 274 332 274 210 274 c 2,9,-1
 156 274 l 2,10,11
 34 274 34 274 34 396 c 2,0,-1
142 384 m 2,12,13
 142 372 142 372 154 372 c 2,14,-1
 212 372 l 2,15,16
 224 372 224 372 224 384 c 2,17,-1
 224 580 l 2,18,19
 224 592 224 592 212 592 c 2,20,-1
 154 592 l 2,21,22
 142 592 142 592 142 580 c 2,23,-1
 142 384 l 2,12,13
EndSplineSet
EndChar

StartChar: uni2074
Encoding: 326 8308 326
Width: 366
Flags: W
LayerCount: 2
Fore
SplineSet
34 326 m 1,0,-1
 34 416 l 1,1,-1
 155 690 l 1,2,-1
 251 690 l 1,3,-1
 263 669 l 1,4,-1
 153 424 l 1,5,-1
 224 424 l 1,6,-1
 224 524 l 1,7,-1
 332 524 l 1,8,-1
 332 274 l 1,9,-1
 224 274 l 1,10,-1
 224 326 l 1,11,-1
 34 326 l 1,0,-1
EndSplineSet
EndChar

StartChar: Euro
Encoding: 332 8364 332
Width: 578
Flags: W
LayerCount: 2
Fore
SplineSet
24 223 m 1,0,-1
 24 315 l 1,1,-1
 92 315 l 1,2,-1
 92 375 l 1,3,-1
 24 375 l 1,4,-1
 24 467 l 1,5,-1
 92 467 l 1,6,-1
 92 522 l 2,7,8
 92 690 92 690 260 690 c 2,9,-1
 477 690 l 1,10,-1
 544 638 l 1,11,-1
 544 560 l 1,12,-1
 266 560 l 2,13,14
 236 560 236 560 236 530 c 2,15,-1
 236 467 l 1,16,-1
 470 467 l 1,17,-1
 470 375 l 1,18,-1
 236 375 l 1,19,-1
 236 315 l 1,20,-1
 426 315 l 1,21,-1
 426 223 l 1,22,-1
 236 223 l 1,23,-1
 236 160 l 2,24,25
 236 130 236 130 266 130 c 2,26,-1
 544 130 l 1,27,-1
 544 52 l 1,28,-1
 477 0 l 1,29,-1
 260 0 l 2,30,31
 92 0 92 0 92 168 c 2,32,-1
 92 223 l 1,33,-1
 24 223 l 1,0,-1
EndSplineSet
EndChar

StartChar: uni20BA
Encoding: 333 8378 333
Width: 578
Flags: W
LayerCount: 2
Fore
SplineSet
22 311 m 1,0,-1
 112 347 l 1,1,-1
 112 404 l 1,2,-1
 56 382 l 1,3,-1
 22 467 l 1,4,-1
 112 503 l 1,5,-1
 112 690 l 1,6,-1
 256 690 l 1,7,-1
 256 561 l 1,8,-1
 421 627 l 1,9,-1
 455 542 l 1,10,-1
 256 462 l 1,11,-1
 256 405 l 1,12,-1
 421 471 l 1,13,-1
 455 386 l 1,14,-1
 256 306 l 1,15,-1
 256 130 l 1,16,-1
 262 130 l 2,17,18
 398 130 398 130 398 264 c 2,19,-1
 398 300 l 1,20,-1
 536 300 l 1,21,-1
 536 282 l 2,22,23
 536 0 536 0 254 0 c 2,24,-1
 112 0 l 1,25,-1
 112 248 l 1,26,-1
 56 226 l 1,27,-1
 22 311 l 1,0,-1
EndSplineSet
EndChar

StartChar: uni20BD
Encoding: 334 8381 334
Width: 578
Flags: W
LayerCount: 2
Fore
SplineSet
32 111 m 1,0,-1
 32 225 l 1,1,-1
 82 225 l 1,2,-1
 82 285 l 1,3,-1
 32 285 l 1,4,-1
 32 405 l 1,5,-1
 82 405 l 1,6,-1
 82 690 l 1,7,-1
 368 690 l 2,8,9
 536 690 536 690 536 522 c 2,10,-1
 536 453 l 2,11,12
 536 285 536 285 368 285 c 2,13,-1
 226 285 l 1,14,-1
 226 225 l 1,15,-1
 410 225 l 1,16,-1
 410 111 l 1,17,-1
 226 111 l 1,18,-1
 226 0 l 1,19,-1
 82 0 l 1,20,-1
 82 111 l 1,21,-1
 32 111 l 1,0,-1
226 405 m 1,22,-1
 362 405 l 2,23,24
 392 405 392 405 392 435 c 2,25,-1
 392 530 l 2,26,27
 392 560 392 560 362 560 c 2,28,-1
 226 560 l 1,29,-1
 226 405 l 1,22,-1
EndSplineSet
EndChar

StartChar: trademark
Encoding: 336 8482 336
Width: 794
Flags: W
LayerCount: 2
Fore
SplineSet
20 598 m 1,0,-1
 20 690 l 1,1,-1
 312 690 l 1,2,-1
 312 598 l 1,3,-1
 217 598 l 1,4,-1
 217 334 l 1,5,-1
 115 334 l 1,6,-1
 115 598 l 1,7,-1
 20 598 l 1,0,-1
344 334 m 1,8,-1
 344 690 l 1,9,-1
 460 690 l 1,10,-1
 543 512 l 1,11,-1
 626 690 l 1,12,-1
 742 690 l 1,13,-1
 742 334 l 1,14,-1
 640 334 l 1,15,-1
 640 499 l 1,16,-1
 582 375 l 1,17,-1
 504 375 l 1,18,-1
 446 499 l 1,19,-1
 446 334 l 1,20,-1
 344 334 l 1,8,-1
EndSplineSet
EndChar

StartChar: Omega
Encoding: 337 8486 337
Width: 708
Flags: W
LayerCount: 2
Fore
SplineSet
52 0 m 1,0,-1
 52 130 l 1,1,-1
 129 130 l 1,2,-1
 108 158 l 2,3,4
 72 206 72 206 72 268 c 2,5,-1
 72 522 l 2,6,7
 72 690 72 690 240 690 c 2,8,-1
 468 690 l 2,9,10
 636 690 636 690 636 522 c 2,11,-1
 636 268 l 2,12,13
 636 206 636 206 600 158 c 2,14,-1
 579 130 l 1,15,-1
 656 130 l 1,16,-1
 656 0 l 1,17,-1
 402 0 l 1,18,-1
 402 110 l 1,19,-1
 477 210 l 2,20,21
 492 230 492 230 492 258 c 2,22,-1
 492 530 l 2,23,24
 492 560 492 560 462 560 c 2,25,-1
 246 560 l 2,26,27
 216 560 216 560 216 530 c 2,28,-1
 216 258 l 2,29,30
 216 230 216 230 231 210 c 2,31,-1
 306 110 l 1,32,-1
 306 0 l 1,33,-1
 52 0 l 1,0,-1
EndSplineSet
EndChar

StartChar: estimated
Encoding: 338 8494 338
Width: 880
Flags: W
LayerCount: 2
Fore
SplineSet
60 345 m 128,-1,1
 60 494 60 494 171.5 599.5 c 128,-1,2
 283 705 283 705 440 705 c 128,-1,3
 597 705 597 705 708.5 599.5 c 128,-1,4
 820 494 820 494 820 325 c 1,5,-1
 200 325 l 1,6,-1
 200 127 l 1,7,8
 305 25 305 25 440 25 c 128,-1,9
 575 25 575 25 687 133 c 1,10,-1
 719 100 l 1,11,12
 597 -15 597 -15 440 -15 c 128,-1,13
 283 -15 283 -15 171.5 90.5 c 128,-1,0
 60 196 60 196 60 345 c 128,-1,1
200 365 m 1,14,-1
 680 365 l 1,15,-1
 680 563 l 1,16,17
 575 665 575 665 440 665 c 128,-1,18
 305 665 305 665 200 563 c 1,19,-1
 200 365 l 1,14,-1
EndSplineSet
EndChar

StartChar: partialdiff
Encoding: 339 8706 339
Width: 586
Flags: W
LayerCount: 2
Fore
SplineSet
64 162 m 2,0,-1
 64 318 l 2,1,2
 64 480 64 480 226 480 c 2,3,-1
 380 480 l 1,4,-1
 380 508 l 2,5,6
 380 620 380 620 268 620 c 2,7,-1
 108 620 l 1,8,-1
 108 695 l 1,9,-1
 168 740 l 1,10,-1
 264 740 l 2,11,12
 518 740 518 740 518 486 c 2,13,-1
 518 162 l 2,14,15
 518 0 518 0 356 0 c 2,16,-1
 226 0 l 2,17,18
 64 0 64 0 64 162 c 2,0,-1
202 152 m 2,19,20
 202 120 202 120 234 120 c 2,21,-1
 348 120 l 2,22,23
 380 120 380 120 380 152 c 2,24,-1
 380 360 l 1,25,-1
 234 360 l 2,26,27
 202 360 202 360 202 328 c 2,28,-1
 202 152 l 2,19,20
EndSplineSet
EndChar

StartChar: Delta
Encoding: 340 8710 340
Width: 676
Flags: W
LayerCount: 2
Fore
SplineSet
18 27 m 1,0,-1
 223 690 l 1,1,-1
 453 690 l 1,2,-1
 658 27 l 1,3,-1
 640 0 l 1,4,-1
 36 0 l 1,5,-1
 18 27 l 1,0,-1
194 130 m 1,6,-1
 482 130 l 1,7,-1
 351 560 l 1,8,-1
 325 560 l 1,9,-1
 194 130 l 1,6,-1
EndSplineSet
EndChar

StartChar: product
Encoding: 341 8719 341
Width: 708
Flags: W
LayerCount: 2
Fore
SplineSet
82 -100 m 1,0,-1
 82 690 l 1,1,-1
 626 690 l 1,2,-1
 626 -100 l 1,3,-1
 482 -100 l 1,4,-1
 482 560 l 1,5,-1
 226 560 l 1,6,-1
 226 -100 l 1,7,-1
 82 -100 l 1,0,-1
EndSplineSet
EndChar

StartChar: summation
Encoding: 342 8721 342
Width: 600
Flags: W
LayerCount: 2
Fore
SplineSet
50 12 m 1,0,-1
 249 295 l 1,1,-1
 50 578 l 1,2,-1
 50 690 l 1,3,-1
 550 690 l 1,4,-1
 550 560 l 1,5,-1
 225 560 l 1,6,-1
 411 295 l 1,7,-1
 225 30 l 1,8,-1
 550 30 l 1,9,-1
 550 -100 l 1,10,-1
 50 -100 l 1,11,-1
 50 12 l 1,0,-1
EndSplineSet
EndChar

StartChar: minus
Encoding: 343 8722 343
Width: 578
Flags: W
LayerCount: 2
Fore
SplineSet
60 276 m 1,0,-1
 60 394 l 1,1,-1
 518 394 l 1,2,-1
 518 276 l 1,3,-1
 60 276 l 1,0,-1
EndSplineSet
EndChar

StartChar: radical
Encoding: 346 8730 346
Width: 612
Flags: W
LayerCount: 2
Fore
SplineSet
20 302 m 1,0,-1
 20 400 l 1,1,-1
 199 400 l 1,2,-1
 283 148 l 1,3,-1
 507 797 l 1,4,-1
 611 761 l 1,5,-1
 342 -10 l 1,6,-1
 217 -10 l 1,7,-1
 110 302 l 1,8,-1
 20 302 l 1,0,-1
EndSplineSet
EndChar

StartChar: infinity
Encoding: 347 8734 347
Width: 614
Flags: W
LayerCount: 2
Fore
SplineSet
32 297 m 2,0,-1
 32 373 l 2,1,2
 32 495 32 495 154 495 c 2,3,-1
 235 495 l 2,4,5
 273 495 273 495 307 461 c 1,6,7
 341 495 341 495 379 495 c 2,8,-1
 460 495 l 2,9,10
 582 495 582 495 582 373 c 2,11,-1
 582 297 l 2,12,13
 582 175 582 175 460 175 c 2,14,-1
 379 175 l 2,15,16
 341 175 341 175 307 209 c 1,17,18
 273 175 273 175 235 175 c 2,19,-1
 154 175 l 2,20,21
 32 175 32 175 32 297 c 2,0,-1
140 285 m 2,22,23
 140 273 140 273 152 273 c 2,24,-1
 241 273 l 2,25,26
 253 273 253 273 253 285 c 2,27,-1
 253 385 l 2,28,29
 253 397 253 397 241 397 c 2,30,-1
 152 397 l 2,31,32
 140 397 140 397 140 385 c 2,33,-1
 140 285 l 2,22,23
361 285 m 2,34,35
 361 273 361 273 373 273 c 2,36,-1
 462 273 l 2,37,38
 474 273 474 273 474 285 c 2,39,-1
 474 385 l 2,40,41
 474 397 474 397 462 397 c 2,42,-1
 373 397 l 2,43,44
 361 397 361 397 361 385 c 2,45,-1
 361 285 l 2,34,35
EndSplineSet
EndChar

StartChar: integral
Encoding: 348 8747 348
Width: 478
Flags: W
LayerCount: 2
Fore
SplineSet
20 -80 m 1,0,-1
 138 -80 l 2,1,2
 170 -80 170 -80 170 -48 c 2,3,-1
 170 578 l 2,4,5
 170 740 170 740 332 740 c 2,6,-1
 398 740 l 1,7,-1
 458 695 l 1,8,-1
 458 620 l 1,9,-1
 340 620 l 2,10,11
 308 620 308 620 308 588 c 2,12,-1
 308 -38 l 2,13,14
 308 -200 308 -200 146 -200 c 2,15,-1
 80 -200 l 1,16,-1
 20 -155 l 1,17,-1
 20 -80 l 1,0,-1
EndSplineSet
EndChar

StartChar: notequal
Encoding: 350 8800 350
Width: 578
Flags: W
LayerCount: 2
Fore
SplineSet
60 166 m 1,0,-1
 60 284 l 1,1,-1
 203 284 l 1,2,-1
 255 386 l 1,3,-1
 60 386 l 1,4,-1
 60 504 l 1,5,-1
 315 504 l 1,6,-1
 371 616 l 1,7,-1
 467 567 l 1,8,-1
 435 504 l 1,9,-1
 518 504 l 1,10,-1
 518 386 l 1,11,-1
 375 386 l 1,12,-1
 323 284 l 1,13,-1
 518 284 l 1,14,-1
 518 166 l 1,15,-1
 263 166 l 1,16,-1
 207 54 l 1,17,-1
 111 103 l 1,18,-1
 143 166 l 1,19,-1
 60 166 l 1,0,-1
EndSplineSet
EndChar

StartChar: lessequal
Encoding: 351 8804 351
Width: 578
Flags: W
LayerCount: 2
Fore
SplineSet
60 0 m 1,0,-1
 60 118 l 1,1,-1
 518 118 l 1,2,-1
 518 0 l 1,3,-1
 60 0 l 1,0,-1
64 344 m 1,4,-1
 64 474 l 1,5,-1
 474 670 l 1,6,-1
 524 565 l 1,7,-1
 191 409 l 1,8,-1
 524 253 l 1,9,-1
 474 148 l 1,10,-1
 64 344 l 1,4,-1
EndSplineSet
EndChar

StartChar: greaterequal
Encoding: 352 8805 352
Width: 578
Flags: W
LayerCount: 2
Fore
SplineSet
60 0 m 1,0,-1
 60 118 l 1,1,-1
 518 118 l 1,2,-1
 518 0 l 1,3,-1
 60 0 l 1,0,-1
54 253 m 1,4,-1
 387 409 l 1,5,-1
 54 565 l 1,6,-1
 104 670 l 1,7,-1
 514 474 l 1,8,-1
 514 344 l 1,9,-1
 104 148 l 1,10,-1
 54 253 l 1,4,-1
EndSplineSet
EndChar

StartChar: lozenge
Encoding: 353 9674 353
Width: 578
Flags: W
LayerCount: 2
Fore
SplineSet
29 345 m 1,0,-1
 227 690 l 1,1,-1
 351 690 l 1,2,-1
 549 345 l 1,3,-1
 351 0 l 1,4,-1
 227 0 l 1,5,-1
 29 345 l 1,0,-1
153 345 m 1,6,-1
 289 108 l 1,7,-1
 425 345 l 1,8,-1
 289 582 l 1,9,-1
 153 345 l 1,6,-1
EndSplineSet
EndChar

StartChar: uniF000
Encoding: 354 61440 354
Width: 700
Flags: W
LayerCount: 2
Fore
SplineSet
50 605 m 1,0,-1
 650 605 l 1,1,-1
 350 85 l 1,2,-1
 50 605 l 1,0,-1
EndSplineSet
EndChar

StartChar: .notdef
Encoding: 357 -1 357
Width: 594
Flags: W
LayerCount: 2
Fore
SplineSet
82 0 m 1,0,-1
 82 740 l 1,1,-1
 512 740 l 1,2,-1
 512 0 l 1,3,-1
 82 0 l 1,0,-1
162 80 m 1,4,-1
 432 80 l 1,5,-1
 432 660 l 1,6,-1
 162 660 l 1,7,-1
 162 80 l 1,4,-1
EndSplineSet
EndChar

StartChar: uni030C.alt
Encoding: 358 -1 358
Width: 0
Flags: W
LayerCount: 2
Fore
SplineSet
-71 583 m 1,0,-1
 -34 768 l 1,1,-1
 57 768 l 1,2,-1
 71 747 l 1,3,-1
 10 563 l 1,4,-1
 -71 583 l 1,0,-1
EndSplineSet
EndChar

StartChar: uni0326.alt
Encoding: 359 -1 359
Width: 0
Flags: W
LayerCount: 2
Fore
SplineSet
-50 623 m 1,0,-1
 5 757 l 1,1,-1
 98 731 l 1,2,-1
 68 602 l 1,3,-1
 -36 602 l 1,4,-1
 -50 623 l 1,0,-1
EndSplineSet
EndChar

StartChar: uni0300.cap
Encoding: 360 -1 360
Width: 0
Flags: W
LayerCount: 2
Fore
SplineSet
-459 876 m 1,0,-1
 -383 948 l 1,1,-1
 -245 791 l 1,2,-1
 -311 728 l 1,3,-1
 -459 876 l 1,0,-1
EndSplineSet
EndChar

StartChar: uni0301.cap
Encoding: 361 -1 361
Width: 0
Flags: W
LayerCount: 2
Fore
SplineSet
-415 791 m 1,0,-1
 -277 948 l 1,1,-1
 -201 876 l 1,2,-1
 -349 728 l 1,3,-1
 -415 791 l 1,0,-1
EndSplineSet
EndChar

StartChar: uni0302.cap
Encoding: 362 -1 362
Width: 0
Flags: W
LayerCount: 2
Fore
SplineSet
-487 794 m 1,0,-1
 -330 948 l 1,1,-1
 -173 794 l 1,2,-1
 -232 732 l 1,3,-1
 -330 825 l 1,4,-1
 -428 732 l 1,5,-1
 -487 794 l 1,0,-1
EndSplineSet
EndChar

StartChar: uni0303.cap
Encoding: 363 -1 363
Width: 0
Flags: W
LayerCount: 2
Fore
SplineSet
-507 804 m 1,0,-1
 -438 873 l 2,1,2
 -419 892 -419 892 -384 892 c 128,-1,3
 -349 892 -349 892 -330 873 c 2,4,-1
 -282 825 l 2,5,6
 -279 822 -279 822 -276 822 c 128,-1,7
 -273 822 -273 822 -270 825 c 2,8,-1
 -212 883 l 1,9,-1
 -153 824 l 1,10,-1
 -222 755 l 2,11,12
 -241 736 -241 736 -276 736 c 128,-1,13
 -311 736 -311 736 -330 755 c 2,14,-1
 -378 803 l 2,15,16
 -381 806 -381 806 -384 806 c 128,-1,17
 -387 806 -387 806 -390 803 c 2,18,-1
 -448 745 l 1,19,-1
 -507 804 l 1,0,-1
EndSplineSet
EndChar

StartChar: uni0304.cap
Encoding: 364 -1 364
Width: 0
Flags: W
LayerCount: 2
Fore
SplineSet
-476 770 m 1,0,-1
 -476 866 l 1,1,-1
 -184 866 l 1,2,-1
 -184 770 l 1,3,-1
 -476 770 l 1,0,-1
EndSplineSet
EndChar

StartChar: uni0306.cap
Encoding: 365 -1 365
Width: 0
Flags: W
LayerCount: 2
Fore
SplineSet
-468 833 m 2,0,-1
 -468 898 l 1,1,-1
 -388 898 l 1,2,-1
 -388 836 l 2,3,4
 -388 828 -388 828 -380 828 c 2,5,-1
 -280 828 l 2,6,7
 -272 828 -272 828 -272 836 c 2,8,-1
 -272 898 l 1,9,-1
 -192 898 l 1,10,-1
 -192 833 l 2,11,12
 -192 748 -192 748 -277 748 c 2,13,-1
 -383 748 l 2,14,15
 -468 748 -468 748 -468 833 c 2,0,-1
EndSplineSet
EndChar

StartChar: uni0307.cap
Encoding: 366 -1 366
Width: 0
Flags: W
LayerCount: 2
Fore
SplineSet
-401 766 m 1,0,-1
 -401 900 l 1,1,-1
 -259 900 l 1,2,-1
 -259 766 l 1,3,-1
 -401 766 l 1,0,-1
EndSplineSet
EndChar

StartChar: uni0308.cap
Encoding: 367 -1 367
Width: 0
Flags: W
LayerCount: 2
Fore
SplineSet
-490 756 m 1,0,-1
 -490 880 l 1,1,-1
 -370 880 l 1,2,-1
 -370 756 l 1,3,-1
 -490 756 l 1,0,-1
-290 756 m 1,4,-1
 -290 880 l 1,5,-1
 -170 880 l 1,6,-1
 -170 756 l 1,7,-1
 -290 756 l 1,4,-1
EndSplineSet
EndChar

StartChar: uni030A.cap
Encoding: 368 -1 368
Width: 0
Flags: W
LayerCount: 2
Fore
SplineSet
-446 801 m 2,0,-1
 -446 859 l 2,1,2
 -446 939 -446 939 -366 939 c 2,3,-1
 -294 939 l 2,4,5
 -214 939 -214 939 -214 859 c 2,6,-1
 -214 801 l 2,7,8
 -214 721 -214 721 -294 721 c 2,9,-1
 -366 721 l 2,10,11
 -446 721 -446 721 -446 801 c 2,0,-1
-368 797 m 2,12,13
 -368 789 -368 789 -360 789 c 2,14,-1
 -300 789 l 2,15,16
 -292 789 -292 789 -292 797 c 2,17,-1
 -292 863 l 2,18,19
 -292 871 -292 871 -300 871 c 2,20,-1
 -360 871 l 2,21,22
 -368 871 -368 871 -368 863 c 2,23,-1
 -368 797 l 2,12,13
EndSplineSet
EndChar

StartChar: uni030B.cap
Encoding: 369 -1 369
Width: 0
Flags: W
LayerCount: 2
Fore
SplineSet
-494 783 m 1,0,-1
 -378 948 l 1,1,-1
 -297 886 l 1,2,-1
 -424 728 l 1,3,-1
 -494 783 l 1,0,-1
-309 783 m 1,4,-1
 -193 948 l 1,5,-1
 -112 886 l 1,6,-1
 -239 728 l 1,7,-1
 -309 783 l 1,4,-1
EndSplineSet
EndChar

StartChar: uni030C.cap
Encoding: 370 -1 370
Width: 0
Flags: W
LayerCount: 2
Fore
SplineSet
-487 876 m 1,0,-1
 -428 938 l 1,1,-1
 -330 845 l 1,2,-1
 -232 938 l 1,3,-1
 -173 876 l 1,4,-1
 -330 722 l 1,5,-1
 -487 876 l 1,0,-1
EndSplineSet
EndChar

StartChar: zero.zero
Encoding: 371 -1 371
Width: 578
Flags: W
LayerCount: 2
Fore
SplineSet
52 168 m 2,0,-1
 52 522 l 2,1,2
 52 690 52 690 220 690 c 2,3,-1
 358 690 l 2,4,5
 526 690 526 690 526 522 c 2,6,-1
 526 168 l 2,7,8
 526 0 526 0 358 0 c 2,9,-1
 220 0 l 2,10,11
 52 0 52 0 52 168 c 2,0,-1
196 160 m 2,12,13
 196 130 196 130 226 130 c 2,14,-1
 352 130 l 2,15,16
 382 130 382 130 382 160 c 2,17,-1
 382 530 l 2,18,19
 382 560 382 560 352 560 c 2,20,-1
 226 560 l 2,21,22
 196 560 196 560 196 530 c 2,23,-1
 196 160 l 2,12,13
237 277 m 1,24,-1
 237 413 l 1,25,-1
 341 413 l 1,26,-1
 341 277 l 1,27,-1
 237 277 l 1,24,-1
EndSplineSet
EndChar

